<?xml version="1.0" encoding="UTF-8"?>
<svg width="134px" height="47px" viewBox="0 0 134 47" version="1.1" xmlns="http://www.w3.org/2000/svg" xmlns:xlink="http://www.w3.org/1999/xlink">
    <!-- Generator: Sketch 53.2 (72643) - https://sketchapp.com -->
    <title>1200px-DLF_logo-01</title>
    <desc>Created with Sketch.</desc>
    <g id="ЛК" stroke="none" stroke-width="1" fill="none" fill-rule="evenodd">
        <g id="Payment_21.02.20" transform="translate(-795.000000, -826.000000)" fill="#2867EF" fill-rule="nonzero">
            <g id="1200px-DLF_logo-01" transform="translate(795.000000, 826.000000)">
                <path d="M0,46.9725866 C1.80962369,35.9605041 3.61924738,24.9942575 5.42887106,14.0050929 C6.27713217,14.0050929 7.05753238,14.0050929 7.84924275,14.0050929 C11.5589713,14.0050929 15.28001,13.9936339 18.9897386,14.0050929 C21.5005914,14.0165519 24.0001342,14.2113546 26.3752653,15.1280732 C30.175475,16.594823 32.2678524,19.4251918 32.8107395,23.4472948 C33.4214875,27.9392161 32.5053655,32.2134167 30.7636027,36.3386505 C29.259353,39.8909352 26.9973234,42.8015169 23.6155891,44.715167 C20.9916348,46.2048348 18.1414775,46.9038327 15.1782187,46.9496687 C10.2243738,47.0298815 5.27052899,46.9840456 0.305373997,46.9955046 C0.237513109,47.0069636 0.169652221,46.9955046 0,46.9725866 Z M11.230977,39.3065271 C12.3167512,39.3065271 13.3572848,39.352363 14.3865083,39.2950681 C17.8587238,39.1117244 20.245165,37.335582 21.6023828,34.1156078 C22.5976758,31.7550574 22.993531,29.2799171 22.91436,26.7360229 C22.8125686,23.7108514 21.8172756,22.4274453 19.0689096,21.957627 C17.5533498,21.7055294 15.9925493,21.7513653 14.4543692,21.7055294 C14.3299576,21.7055294 14.1037546,21.9920039 14.0698242,22.1753477 C13.6852791,24.3525544 13.3346646,26.5412201 12.9727398,28.7184269 C12.3959223,32.2248757 11.8191047,35.7313244 11.230977,39.3065271 Z" id="Shape"></path>
                <path d="M64.4079254,15 C72.2944833,15 80.1359751,15 88,15 C87.5831391,17.482087 87.1662782,19.9196522 86.7494172,22.424 C86.5128205,22.424 86.2874903,22.424 86.0734266,22.424 C81.9386169,22.424 77.8150738,22.4351304 73.6802642,22.424 C73.2070707,22.424 73.0493395,22.5464348 72.970474,23.0250435 C72.7226107,24.6723478 72.4184149,26.3196522 72.1367521,27.9558261 C72.1254856,28.0448696 72.1367521,28.133913 72.1367521,28.2897391 C75.7195027,28.2897391 79.3022533,28.2897391 82.9638695,28.2897391 C82.5470085,30.8163478 82.1301476,33.2761739 81.7132867,35.7693913 C80.7443667,35.7693913 79.8205128,35.7693913 78.9079254,35.7693913 C76.3954934,35.7693913 73.8717949,35.7805217 71.3593629,35.7582609 C70.9312354,35.7582609 70.7960373,35.8806957 70.7284382,36.3036522 C70.1651127,39.7763478 69.5567211,43.2490435 68.9708625,46.7217391 C68.959596,46.8107826 68.9370629,46.8998261 68.9145299,47 C65.6134421,47 62.3348873,47 59,47 C60.8139083,36.3147826 62.6052836,25.6852174 64.4079254,15 Z" id="Path"></path>
                <path d="M43.2585034,39.5622825 C47.861678,39.5622825 52.3854875,39.5622825 57,39.5622825 C56.569161,42.078636 56.1496599,44.5281837 55.7301587,47 C47.8163265,47 39.9478458,47 32,47 C33.814059,36.3110647 35.61678,25.6666667 37.430839,15 C40.7641723,15 44.0634921,15 47.4195011,15 C46.047619,23.1614475 44.6530612,31.3228949 43.2585034,39.5622825 Z" id="Path"></path>
                <path d="M134,47 C128.295831,47 122.692919,47 117,47 C119.823958,42.0075131 122.614163,37.0826446 125.483124,32 C128.352085,37.0375657 131.153541,41.973704 134,47 Z" id="Path"></path>
                <path d="M89.4943597,32 C92.3596549,37.0451467 95.1572661,41.9887133 98,47 C92.3145322,47 86.6967485,47 81,47 C83.8314532,42.0112867 86.6403451,37.0564334 89.4943597,32 Z" id="Path"></path>
                <path d="M116,15 C110.303251,15 104.696749,15 99,15 C101.820173,10.0112867 104.617784,5.06772009 107.49436,0 C110.348374,5.04514673 113.157266,9.98871332 116,15 Z" id="Path"></path>
                <path d="M124,30 C118.651934,30 113.381215,30 108,30 C110.685083,25.3003922 113.325967,20.6886275 116,16 C118.674033,20.6886275 121.325967,25.3223529 124,30 Z" id="Path"></path>
                <path d="M90,30 C92.6703448,25.315047 95.3075862,20.7068966 98,16 C100.681379,20.6959248 103.318621,25.315047 106,30 C100.626207,30 95.3627586,30 90,30 Z" id="Path"></path>
                <path d="M115,47 C109.63718,47 104.373877,47 99,47 C101.664824,42.336982 104.296475,37.7177482 106.994471,33 C109.68141,37.6849101 112.313062,42.2931978 115,47 Z" id="Path"></path>
                <path d="M98,46 C95.3064748,41.2876936 92.6705036,36.6666667 90,32 C95.352518,32 100.61295,32 106,32 C103.341007,36.6666667 100.705036,41.2648737 98,46 Z" id="Path"></path>
                <path d="M115.99424,46 C113.298776,41.2914286 110.672426,36.6742857 108,32 C113.356371,32 118.632109,32 124,32 C121.339093,36.6628571 118.701224,41.28 115.99424,46 Z" id="Path"></path>
                <path d="M107,30 C104.306475,25.2952692 101.670504,20.6818923 99,16 C104.364029,16 109.62446,16 115,16 C112.329496,20.6704731 109.693525,25.2952692 107,30 Z" id="Path"></path>
            </g>
        </g>
    </g>
</svg>