<svg xmlns="http://www.w3.org/2000/svg" width="176" height="43" viewBox="0 0 176 43">
    <g fill="none" fill-rule="evenodd">
        <g fill-rule="nonzero">
            <path fill="#FF5F00" d="M130.921 4.803h18.957v33.301h-18.957z"/>
            <path fill="#EB001B" d="M132.124 21.456c-.007-6.5 3.045-12.64 8.275-16.653-8.883-6.824-21.639-5.83-29.303 2.283-7.665 8.113-7.665 20.621 0 28.734 7.664 8.113 20.42 9.107 29.303 2.284-5.229-4.012-8.28-10.15-8.275-16.648z"/>
            <path fill="#F79E1B" d="M175.454 21.456c0 8.108-4.737 15.505-12.198 19.048-7.46 3.543-16.336 2.61-22.857-2.4 5.226-4.015 8.278-10.153 8.278-16.65 0-6.498-3.052-12.636-8.278-16.651 6.52-5.011 15.396-5.943 22.857-2.4 7.461 3.543 12.198 10.94 12.198 19.047v.006zM173.65 36.613V34.24h.458v-.49h-1.158v.49h.497v2.372h.204zm2.249 0V33.75h-.35l-.41 2.044-.408-2.044h-.311v2.862h.253v-2.147l.38 1.86h.262l.38-1.86v2.167l.204-.02z"/>
        </g>
        <g fill="#0061B2">
            <path d="M4.91 7.97l.001.008H0v.851c3.833.124 4.977 1.961 5.401 4.1l2.26 22.833h7.437L30.986 7.97H23.55L14 24.674 12.347 7.97H4.91zM34.754 7.97h6.958l-8.534 27.792h-6.959zM74.598 9.178L60.781 35.762h7.751l2.017-4.06h8.998l.308 4.06H87L84.978 9.178h-10.38zM78.353 16l.855 11.24h-6.44L78.352 16z"/>
            <path fill-rule="nonzero" d="M43.628 15.34c1.092-4.38 4.675-7.37 10.776-7.37 5.714 0 9.952 3.582 9.952 3.582l-4.324 4.546s-3.196-2.48-5.08-2.48c-2.489 0-3.613.913-3.843 2.411-.458 2.989 10.151 4.817 9.815 11.78-.224 4.649-5.019 9.161-10.501 9.161-8.221 0-12.286-3.306-12.286-3.306l3.706-5.304s3.716 2.986 7.207 2.824c2.356-.11 4.172-1.016 4.05-2.618-.276-3.63-11.448-5.297-9.472-13.225z"/>
        </g>
    </g>
</svg>
