<?xml version="1.0" encoding="UTF-8"?>
<svg xmlns="http://www.w3.org/2000/svg" width="71" height="71" viewBox="0 0 71 71">
  <path fill="#15A1E0" fill-rule="evenodd" d="M35.7578 70.6406C16.4906 70.6406.875 55.025.875 35.7578.875 16.4906 16.4906.875 35.7578.875c19.2672 0 34.8828 15.6156 34.8828 34.8828 0 19.2653-15.6175 34.8828-34.8828 34.8828zm-2.0781-47.8265c-3.9557.1961-7.1095 3.3756-7.2734 7.3328 0 3.5922 2.1968 5.9375 6.8578 6.9172l3.2656.7718c3.1765.7422 4.4828 1.811 4.4828 3.622 0 1.8108-2.286 3.5921-5.2547 3.5921a5.6406 5.6406 0 0 1-5.3437-2.7016 2.0187 2.0187 0 0 0-1.811-1.1578h-1.7515a1.039 1.039 0 0 0-.8313 1.2172c.8775 3.5813 4.0617 6.1189 7.7484 6.175v2.4938c0 1.1559.9371 2.093 2.093 2.093 1.156 0 2.093-.9371 2.093-2.093V48.553c4.215-.0478 7.625-3.4445 7.689-7.6594 0-3.7703-2.1671-5.9375-7.303-7.0359l-2.9688-.6531c-2.9688-.7422-4.364-1.7219-4.364-3.3844 0-1.6625 1.7812-3.5031 4.75-3.5031a4.8687 4.8687 0 0 1 4.7202 2.4047 2.375 2.375 0 0 0 2.1375 1.3656h1.3953c.66-.1614 1.0692-.8215.9203-1.4844-.825-3.2978-3.675-5.6927-7.0656-5.9375v-2.0484c0-1.156-.937-2.093-2.093-2.093-1.1559 0-2.093.937-2.093 2.093v2.1969zM9.603 35.7578c.007 11.2143 7.1781 21.1702 17.8125 24.7297h.4156c.7379 0 1.336-.5981 1.336-1.336v-.6234a2.7906 2.7906 0 0 0-1.7219-2.5828c-8.262-3.3348-13.6716-11.352-13.6716-20.2617 0-8.9096 5.4096-16.9269 13.6716-20.2617a2.761 2.761 0 0 0 1.7219-2.5532v-.6828a1.2469 1.2469 0 0 0-1.6625-1.1875C16.8247 14.5305 9.61 24.509 9.603 35.7578zm52.3094 0c-.0197-11.2034-7.1884-21.144-17.8125-24.7h-.4453a1.3937 1.3937 0 0 0-1.3953 1.3953v.4453a2.9687 2.9687 0 0 0 1.811 2.672c8.2425 3.3443 13.6349 11.3516 13.6349 20.2468s-5.3924 16.9025-13.635 20.2469a2.9687 2.9687 0 0 0-1.7812 2.6421v.5047a1.3953 1.3953 0 0 0 1.8406 1.3063c10.633-3.5732 17.7929-13.542 17.7828-24.7594z"/>
</svg>
