<?xml version="1.0" encoding="UTF-8"?>
<svg width="82px" height="72px" viewBox="0 0 82 72" version="1.1" xmlns="http://www.w3.org/2000/svg" xmlns:xlink="http://www.w3.org/1999/xlink">
    <!-- Generator: Sketch 53.2 (72643) - https://sketchapp.com -->
    <title>Group 2</title>
    <desc>Created with Sketch.</desc>
    <g id="ЛК" stroke="none" stroke-width="1" fill="none" fill-rule="evenodd">
        <g id="Payment_21.02.20" transform="translate(-539.000000, -802.000000)" fill="#2867EF" fill-rule="nonzero">
            <g id="Group-2" transform="translate(539.000000, 802.000000)">
                <path d="M25.0022796,48 C21.9412784,61.1966605 21.5501049,63.2727273 21.1561959,65.5491651 L21.0905444,65.5491651 C20.5680678,62.4434137 20.3328166,61.1716141 17.5754536,48 L12.3506884,48 C9.85046047,60.5983302 9.4921127,63.038961 9.06537795,65.5491651 L9.00246193,65.5491651 C8.57572718,62.8079777 8.27482447,61.135436 5.25212,48 L0,48 L6.6690982,72 L11.2674387,72 C13.8004924,59.6326531 14.1889304,57.893321 14.9165679,53.2792208 L14.9794839,53.2792208 C15.7645664,57.8877551 16.1967721,60.2309833 18.6286131,72 L23.3582566,72 L30,48 L25.0022796,48 Z" id="Path"></path>
                <path d="M59.878173,14.5313163 C59.820935,13.5570869 59.785502,13 59.785502,13 C59.785502,13 59.7010078,13.5517045 59.5401964,14.5178601 C59.4720559,14.9942098 59.371208,15.5728266 59.2621833,16.2375632 C59.1831404,16.8996085 58.8587918,17.607405 58.6380168,18.3878649 C58.4090649,19.1683249 58.1310518,19.9972272 57.673148,20.8045996 C57.2506772,21.6227369 56.8745419,22.5000816 56.2340216,23.2724678 C55.9505573,23.6680802 55.6589162,24.0717664 55.3700007,24.4808351 C55.0620058,24.8737563 54.6640656,25.215544 54.3151865,25.5869352 C53.6419588,26.3566302 52.8160965,26.9863807 51.9956854,27.6053662 C51.2216099,28.2566466 50.2458386,28.7060838 49.4281532,29.2443321 C48.4823637,29.6507095 47.6537758,30.1512804 46.7216144,30.4526994 C45.8330629,30.8025608 44.9554139,31.1012885 44.0913929,31.3192791 C43.2573538,31.5884032 42.420589,31.7175828 41.6819465,31.8952047 C41.2104146,31.9786332 40.7743157,32.0486054 40.3572961,32.110504 C40.3981804,31.9840157 40.4499671,31.865601 40.493577,31.7391127 C40.8887917,30.560349 41.185884,29.3277606 41.3821285,28.0332735 C41.4638971,27.3766107 41.5320375,26.7118741 41.578373,26.0336813 C41.6165317,25.3474148 41.6029036,24.6342359 41.5320375,23.8914533 C40.8315537,24.1794161 40.1910334,24.5050563 39.5886718,24.8522264 C39.0053895,25.2101615 38.4439122,25.5815528 37.896063,25.9664003 C36.8276207,26.744169 35.8654775,27.581145 34.9960053,28.4746371 C33.2379816,30.2535475 31.8043065,32.2262274 30.6104858,34.3388517 L30.4578512,34.5999021 C29.7219343,35.9132279 29.866392,37.5952536 30.9402856,38.7740173 C32.357607,40.3268635 33.9112093,41.77206 35.7155685,43.0073397 C36.6122968,43.6290165 37.5717144,44.2022509 38.6156261,44.7108954 C39.6595379,45.2141576 40.736157,45.6931985 42.0171975,46 C41.9517827,44.7028217 41.6846721,43.5644267 41.3903054,42.4556353 C41.1013899,41.3764476 40.7252546,40.3672321 40.2918813,39.3983853 C41.2485732,39.0915838 42.4042353,38.6663676 43.7098064,38.1200457 C44.5520224,37.721742 45.4760069,37.3503507 46.4027171,36.8201762 C47.3457809,36.3411352 48.2997473,35.7625183 49.2618905,35.1220029 C50.2458386,34.5380036 51.1534694,33.717175 52.1156126,33.0039961 C52.9823592,32.1454901 53.9363255,31.3865601 54.7022242,30.4177133 C55.4953791,29.4838526 56.2640034,28.5526831 56.8527369,27.503099 C57.1525549,26.9917632 57.4959828,26.5154135 57.7467397,25.9906214 C57.972966,25.4604469 58.2019179,24.9383461 58.4199673,24.4216278 C58.9214811,23.4258685 59.1340793,22.3628282 59.3848361,21.3939814 C59.6819285,20.4358995 59.7800508,19.4966563 59.8372887,18.6354591 C59.8945267,17.7742619 60.0444357,17.0072582 59.9871977,16.312918 C59.9381366,15.6266514 59.913606,15.0238134 59.878173,14.5313163 Z" id="Path"></path>
                <path d="M53.1494337,7.44420494 C51.8045815,5.87365279 50.3233725,4.40391312 48.5908392,3.13314542 C47.7299199,2.49112917 46.8075064,1.89951915 45.7995357,1.36892721 C44.7862176,0.846294147 43.7408156,0.344884762 42.4975626,0 C42.5216255,1.28137954 42.7488868,2.40888742 43.0082321,3.51251865 C43.26223,4.58431438 43.6017852,5.58978611 43.9974872,6.55546344 C43.048337,6.83137125 41.8986622,7.21870337 40.6072832,7.71745979 C39.7677532,8.08622119 38.850687,8.42314707 37.9282735,8.91925054 C36.989818,9.36494777 36.0353205,9.90615155 35.072802,10.5110264 C34.0915679,11.060189 33.1771754,11.8401592 32.2173306,12.5140109 C31.3403693,13.3364285 30.3805245,14.0527276 29.6024887,14.9892224 C28.80039,15.8859227 28.0143332,16.7799702 27.4074119,17.7987067 C27.097267,18.2948101 26.7443436,18.7537722 26.4849983,19.2604875 C26.241695,19.7751617 26.0064128,20.2871829 25.7738041,20.7859393 C25.25244,21.7516166 25.0171577,22.7915769 24.7417704,23.7386835 C24.4209309,24.6751782 24.3032898,25.5957553 24.2177326,26.4447024 C24.14287,27.2909965 23.9637347,28.0417841 24.0065133,28.7289007 C24.0279026,29.4080584 24.0466182,29.9996684 24.0599865,30.487813 C24.0920705,31.4481844 24.1027651,32 24.1027651,32 C24.1027651,32 24.2043643,31.4561433 24.3834997,30.5090366 C24.4717305,30.0421157 24.5813507,29.4770353 24.7043392,28.8244072 C24.8059383,28.1744321 25.1428198,27.4846626 25.3807757,26.7232631 C25.6321,25.9592107 25.9208556,25.150058 26.4047885,24.3700879 C26.8432691,23.5742 27.2389711,22.7199469 27.8886711,21.9771182 C28.1801003,21.597745 28.4768768,21.2077599 28.776327,20.8151219 C29.0891455,20.4330957 29.4875212,20.1094346 29.8350973,19.753938 C30.5115339,19.0190681 31.3403693,18.4221522 32.1611837,17.8358481 C32.9445667,17.2177085 33.9017379,16.8011938 34.7278996,16.2944785 C35.6663551,15.9204112 36.4951904,15.4508373 37.4202776,15.1828884 C38.3052599,14.8645332 39.1742002,14.5965843 40.0244248,14.4055712 C40.8505865,14.1641519 41.6794219,14.0606865 42.4066581,13.9068148 C42.8718753,13.8404908 43.3050086,13.7847786 43.7114053,13.7343724 C43.6632794,13.8564086 43.6178271,13.9731388 43.5670275,14.0951749 C43.1445889,15.2439065 42.8184021,16.4510032 42.5857934,17.7217709 C42.4841943,18.3664401 42.3959634,19.0217211 42.3291218,19.687614 C42.2756486,20.3641187 42.2649539,21.0645001 42.3130799,21.8020229 C43.0082321,21.5393799 43.6418901,21.2369425 44.2461378,20.9106284 C44.8289962,20.5737025 45.3984863,20.2235119 45.9412398,19.8653623 C47.0160521,19.1304925 47.9839179,18.3319516 48.8662265,17.4750456 C50.636191,15.7718455 52.1040317,13.8723263 53.3419374,11.8242414 L53.4970098,11.5695573 C54.2563299,10.2987896 54.1680991,8.63538385 53.1494337,7.44420494 Z" id="Path"></path>
                <polygon id="Path" points="69.5915063 67.742115 69.5915063 61.5250464 80.5041247 61.5250464 80.5041247 57.283859 69.5915063 57.283859 69.5915063 52.2439703 81.4728078 52.2439703 81.4728078 48 65 48 65 72 82 72 82 67.742115"></polygon>
                <path d="M59.9865614,66.5828889 C59.9865614,62.1034083 58.9783874,61.3633202 57.1120809,60.4952469 C59.360072,59.6967308 60.6235799,57.4180385 60.6235799,54.7832135 C60.6235799,52.7076281 59.5127459,48 53.4715988,48 L42,48 L42,71.9944354 L46.6539208,71.9944354 L46.6539208,62.5958729 L51.5526462,62.5958729 C55.0588806,62.5958729 55.2484068,63.8673777 55.2484068,67.147693 C55.2457745,69.6155808 55.4379329,70.8564804 55.7564422,72 L61,72 L61,71.3628565 C59.9865614,70.9622073 59.9865614,70.0913517 59.9865614,66.5828889 Z M52.2107232,58.5615581 L46.6539208,58.5615581 L46.6539208,52.142824 L52.5608202,52.142824 C55.3484345,52.142824 55.882793,54.0125203 55.882793,55.284025 C55.8801607,57.6545328 54.6771959,58.5587758 52.2107232,58.5615581 Z" id="Shape"></path>
                <rect id="Rectangle" x="32" y="48" width="5" height="24"></rect>
            </g>
        </g>
    </g>
</svg>