<svg width="183" height="20" viewBox="0 0 183 20" fill="none" xmlns="http://www.w3.org/2000/svg">
<path fill-rule="evenodd" clip-rule="evenodd" d="M0 10.297V10.2423C0 4.90623 4.02811 0.486395 9.63397 0.486395C13.0896 0.486395 15.1588 1.69894 17.0634 3.47763L15.5942 5.04116C13.9889 3.53143 12.1921 2.45292 9.60637 2.45292C5.38861 2.45292 2.2322 5.84981 2.2322 10.1885V10.2423C2.2322 14.6092 5.41622 18.0326 9.60637 18.0326C12.2197 18.0326 13.9336 17.0352 15.7572 15.3103L17.172 16.6851C15.1864 18.679 13.0085 20 9.55295 20C4.05571 20 0 15.7151 0 10.297ZM43.7083 19.6767V0.809506H45.8586V19.6767H43.7083ZM51.4362 0.809329H53.4503L65.4518 15.9295V0.809329H67.5478V19.6765H65.8329L53.5322 4.20534V19.6765H51.4362V0.809329ZM88.8354 0.809329H93.3256L97.2718 13.5847L101.544 0.754655H105.137L109.409 13.5847L113.356 0.809329H117.737L111.232 19.8115H107.586L103.285 7.46642L98.9858 19.8115H95.3397L88.8354 0.809329ZM121.031 19.6767V0.809506H125.222V19.6767H121.031ZM134.421 4.63648H128.624V0.809241H144.409V4.63648H138.612V19.6764H134.421V4.63648ZM36.7405 10.297V10.2423C36.7405 5.9574 33.5832 2.45292 29.2292 2.45292C24.8752 2.45292 21.7722 5.90361 21.7722 10.1885V10.2423C21.7722 14.529 24.9296 18.0326 29.2835 18.0326C33.6384 18.0326 36.7405 14.5828 36.7405 10.297ZM19.5409 10.297V10.2423C19.5409 5.04116 23.4862 0.486395 29.2835 0.486395C35.0808 0.486395 38.9718 4.98736 38.9718 10.1885V10.2423C38.9718 15.4452 35.0256 20 29.2292 20C23.4328 20 19.5409 15.4981 19.5409 10.297ZM145.96 10.297V10.2423C145.96 4.8789 150.042 0.486395 155.893 0.486395C159.486 0.486395 161.635 1.6716 163.404 3.3965L160.738 6.44242C159.268 5.12141 157.772 4.31275 155.866 4.31275C152.656 4.31275 150.342 6.95477 150.342 10.1885V10.2423C150.342 13.4769 152.601 16.1728 155.866 16.1728C158.043 16.1728 159.376 15.3103 160.874 13.9628L163.541 16.6313C161.582 18.7063 159.405 20 155.73 20C150.124 20 145.96 15.7151 145.96 10.297ZM166.888 0.809329H171.08V8.27508H178.808V0.809329H183V19.6765H178.808V12.1023H171.08V19.6765H166.888V0.809329ZM76.6935 18.228C76.6819 18.2359 76.673 18.2456 76.6623 18.2527C76.5501 18.3356 76.4308 18.4061 76.3053 18.4688L76.3035 18.4696C76.0444 18.5984 75.7612 18.6786 75.4603 18.7077H75.4594C75.3837 18.7148 75.3098 18.7298 75.2315 18.7298C75.2154 18.7298 75.1985 18.7298 75.1825 18.7298C73.8522 18.7033 72.7954 17.6134 72.8221 16.2959C72.8488 14.9943 73.9226 13.9581 75.2297 13.9581C75.2466 13.9581 75.2635 13.9581 75.2795 13.9581C76.5617 13.9845 77.5785 14.9987 77.6284 16.25C77.6302 16.2985 77.64 16.3435 77.6391 16.392C77.6373 16.5498 77.6168 16.7033 77.5839 16.8506C77.5705 16.9132 77.5456 16.9714 77.5278 17.0322C77.5019 17.1133 77.4806 17.1962 77.4476 17.273C77.4129 17.3541 77.3675 17.429 77.3239 17.5049C77.2963 17.5534 77.2713 17.6045 77.2411 17.6513C77.1805 17.7412 77.1111 17.8241 77.0398 17.9052C77.0176 17.9291 76.9989 17.9555 76.9757 17.9784C76.8894 18.0702 76.7932 18.1513 76.6935 18.228ZM81.2619 3.24906C81.2406 3.11943 81.2272 2.98715 81.2299 2.85046C81.2326 2.70672 81.253 2.56915 81.2806 2.43246C81.2878 2.39543 81.2967 2.35839 81.3056 2.32135C81.335 2.20583 81.3715 2.09295 81.4169 1.98537C81.4356 1.93951 81.4587 1.89718 81.4801 1.85309C81.5193 1.77549 81.562 1.69876 81.6092 1.62645C81.6457 1.56913 81.684 1.51534 81.725 1.46155C81.7543 1.42363 81.7864 1.38835 81.8176 1.3522C81.9155 1.23932 82.0223 1.13614 82.1408 1.04355C82.1568 1.03032 82.1719 1.01709 82.1888 1.00475C82.2645 0.948309 82.342 0.895398 82.4248 0.846896C82.7827 0.639661 83.1941 0.512675 83.6375 0.512675C83.6544 0.512675 83.6704 0.512675 83.6874 0.512675C85.0176 0.53913 86.0736 1.6291 86.0469 2.94658C86.0211 4.24731 84.9481 5.28437 83.6393 5.28437C83.6224 5.28437 83.6063 5.28437 83.5894 5.28437C82.5236 5.26321 81.6439 4.55332 81.3465 3.59651C81.3109 3.48275 81.2806 3.36811 81.2619 3.24906ZM81.0402 8.04368C84.8831 9.11778 87.0316 10.5358 86.9648 13.8233L86.9639 13.8771C86.9149 16.3207 85.6488 18.0368 83.6356 18.9143L83.6383 18.9178C82.097 19.7741 78.3877 19.8772 76.4529 19.8702C77.9033 19.3702 78.9682 18.0139 79.0003 16.4195C79.0021 16.3437 78.9958 16.2696 78.9932 16.1946C79.7607 16.1303 80.5478 16.005 81.3402 15.7731V15.7705C82.2457 15.5218 82.7773 14.975 82.7933 14.1981L82.7942 14.1443C82.8156 13.0932 82.1727 12.542 79.0065 11.6699C75.1903 10.6231 72.7355 9.52255 72.8112 5.77733L72.8121 5.72353C72.8575 3.53125 74.0337 1.84162 75.8937 0.928026L75.8911 0.922735C77.2996 0.0823311 79.7856 -0.0208454 81.2699 0.00296454C80.4365 0.674935 79.8925 1.68906 79.8693 2.82312C79.864 3.10267 79.8916 3.37428 79.9459 3.63707C79.3262 3.69351 78.7243 3.81785 77.9924 4.08417C77.3433 4.3646 76.9942 4.85403 76.9827 5.429L76.9818 5.48279C76.9568 6.72179 77.7644 7.14243 81.0402 8.04368Z" fill="#2867EF"/>
</svg>
