<?xml version="1.0" encoding="UTF-8"?>
<svg width="70px" height="70px" viewBox="0 0 70 70" version="1.1" xmlns="http://www.w3.org/2000/svg" xmlns:xlink="http://www.w3.org/1999/xlink">
    <g id="Бизнес-идеи" stroke="none" stroke-width="1" fill="none" fill-rule="evenodd">
        <g id="diamond-(1)" fill-rule="nonzero">
            <polygon id="Path" fill="#FFFFFF" points="1.36705078 30.2222266 35.0041016 68.6292578 68.6329492 30.2222266"></polygon>
            <g id="Group" transform="translate(1.230469, 13.125000)" fill="#78D2FA">
                <polygon id="Path" points="0.136582031 17.0972266 33.7736328 55.5042578 67.4024805 17.0972266"></polygon>
                <polygon id="Path" points="11.3993359 0.0041015625 0.138222656 17.0972266 67.4024805 17.0972266 56.1929102 0.0041015625"></polygon>
            </g>
            <polygon id="Path" fill="#FFFFFF" points="23.7943945 30.2222266 35.0041016 13.1291016 46.2136719 30.2222266"></polygon>
            <g id="Group" transform="translate(1.367188, 13.125000)" fill="#C8F5FF">
                <polygon id="Path" points="44.8464844 17.0972266 56.0561914 0.0041015625 67.2657617 17.0972266"></polygon>
                <polygon id="Path" points="0.053046875 17.0972266 11.2624805 0.0041015625 22.4721875 17.0972266"></polygon>
                <polygon id="Path" points="44.8464844 17.0972266 22.427207 17.0972266 33.6369141 55.3675391"></polygon>
            </g>
            <g id="Group" transform="translate(5.878906, 1.367188)" fill="#FFFFFF">
                <path d="M7.84929688,52.4716992 L7.84929688,52.4716992 C7.84929688,48.1846094 4.37390625,44.7092188 0.0868164063,44.7092188 L0.0868164063,44.7092188 C4.37390625,44.7092188 7.84929688,41.2338281 7.84929688,36.9467383 L7.84929688,36.9467383 C7.84929688,41.2338281 11.3246875,44.7092188 15.6117773,44.7092188 L15.6117773,44.7092188 C11.3248242,44.7092188 7.84929688,48.1847461 7.84929688,52.4716992 Z" id="Path"></path>
                <path d="M57.2858398,10.9398242 L57.2858398,10.9398242 C57.2858398,7.91984375 54.8376172,5.47162109 51.8176367,5.47162109 L51.8176367,5.47162109 C54.8376172,5.47162109 57.2858398,3.02339844 57.2858398,0.00341796875 L57.2858398,0.00341796875 C57.2858398,3.02339844 59.7340625,5.47162109 62.754043,5.47162109 L62.754043,5.47162109 C59.7340625,5.47175781 57.2858398,7.91998047 57.2858398,10.9398242 Z" id="Path"></path>
            </g>
            <path d="M58.5664844,12.3793359 C58.3136914,11.9940625 57.8841211,11.7619141 57.4233789,11.7619141 L12.6298047,11.7619141 C12.1700195,11.7619141 11.7411328,11.9929687 11.4882031,12.3770117 L0.260585937,29.4192773 C0.207128906,29.4929687 0.16078125,29.5725391 0.122089844,29.6575781 C-0.09953125,30.1462109 -0.014765625,30.7191992 0.338789062,31.122793 L6.02970703,37.620625 C6.52722656,38.1886914 7.39074219,38.2458398 7.95880859,37.748457 C8.52673828,37.2509375 8.58388672,36.3872852 8.08650391,35.8194922 L4.38183594,31.5892773 L22.7706445,31.5892773 L32.010918,63.1367188 L21.5690234,51.2141602 C21.0716406,50.6460938 20.2078516,50.5889453 19.6400586,51.0863281 C19.0721289,51.5838477 19.0149805,52.4475 19.5123633,53.0154297 L33.9758398,69.5298242 C34.235332,69.8262305 34.6103516,69.9963086 35.0042383,69.9963086 C35.3982617,69.9963086 35.7730078,69.8262305 36.0325,69.5296875 L51.4311328,51.9432813 C51.9286523,51.3752148 51.8713672,50.5115625 51.3031641,50.0143164 C50.7349609,49.5167969 49.8713086,49.574082 49.3741992,50.1422852 L37.997832,63.1350781 L47.237832,31.5892773 L65.6189844,31.5892773 L57.1174023,41.299043 C56.6198828,41.8671094 56.677168,42.7307617 57.2453711,43.2280078 C57.5047266,43.4552344 57.8257422,43.5666602 58.1453906,43.5666602 C58.5257422,43.5666602 58.9041797,43.40875 59.1743359,43.1000391 L69.6614844,31.122793 C70.0660352,30.6608203 70.1129297,29.9859766 69.7761914,29.4725977 L58.5664844,12.3793359 Z M66.1016016,28.8551758 L48.7450195,28.8551758 L57.4233789,15.6218945 L66.1016016,28.8551758 Z M23.8168164,27.6951172 L15.1610156,14.4961523 L32.4727539,14.4961523 L23.8168164,27.6951172 Z M35.0041016,15.6218945 L43.6823242,28.8551758 L26.3258789,28.8551758 L35.0041016,15.6218945 Z M37.5354492,14.4961523 L54.892168,14.4961523 L46.2138086,27.7294336 L37.5354492,14.4961523 Z M12.6270703,15.6179297 L21.3080273,28.8551758 L3.90646484,28.8551758 L12.6270703,15.6179297 Z M35.0041016,63.6293164 L25.6194531,31.5892773 L44.3888867,31.5892773 L35.0041016,63.6293164 Z" id="Shape" fill="#56B1DA"></path>
            <path d="M22.8577344,46.0764063 C22.8577344,45.3214453 22.2455078,44.7093555 21.4906836,44.7093555 C17.9642969,44.7093555 15.0952539,41.8403125 15.0952539,38.3139258 C15.0952539,37.5589648 14.4830273,36.946875 13.7282031,36.946875 C12.9733789,36.946875 12.3611523,37.5589648 12.3611523,38.3139258 C12.3611523,41.8403125 9.49210938,44.7093555 5.96572266,44.7093555 C5.21089844,44.7093555 4.59867188,45.3214453 4.59867188,46.0764063 C4.59867188,46.8313672 5.21089844,47.443457 5.96572266,47.443457 C9.49210938,47.443457 12.3611523,50.3125 12.3611523,53.8388867 C12.3611523,54.5938477 12.9733789,55.2059375 13.7282031,55.2059375 C14.4830273,55.2059375 15.0952539,54.5938477 15.0952539,53.8388867 C15.0952539,50.3125 17.9642969,47.443457 21.4906836,47.443457 C22.2457813,47.443457 22.8577344,46.8315039 22.8577344,46.0764063 Z M13.7282031,49.0378711 C12.9829492,47.837207 11.9674023,46.8217969 10.766875,46.0764063 C11.9674023,45.3311523 12.9828125,44.3157422 13.7282031,43.1149414 C14.473457,44.3156055 15.4890039,45.3310156 16.6895313,46.0764063 C15.4890039,46.8217969 14.4735938,47.8370703 13.7282031,49.0378711 Z" id="Shape" fill="#56B1DA"></path>
            <path d="M57.696543,8.20599609 C59.9578711,8.20599609 61.7976953,10.0458203 61.7976953,12.3071484 C61.7976953,13.0621094 62.4099219,13.6741992 63.1647461,13.6741992 C63.9195703,13.6741992 64.5317969,13.0621094 64.5317969,12.3071484 C64.5317969,10.0458203 66.3716211,8.20599609 68.6329492,8.20599609 C69.3877734,8.20599609 70,7.59390625 70,6.83894531 C70,6.08398437 69.3877734,5.47189453 68.6329492,5.47189453 C66.3716211,5.47189453 64.5317969,3.63207031 64.5317969,1.37074219 C64.5317969,0.61578125 63.9195703,0.00369140625 63.1647461,0.00369140625 C62.4099219,0.00369140625 61.7976953,0.61578125 61.7976953,1.37074219 C61.7976953,3.63207031 59.9578711,5.47189453 57.696543,5.47189453 C56.9417187,5.47189453 56.3294922,6.08398437 56.3294922,6.83894531 C56.3294922,7.59390625 56.9417187,8.20599609 57.696543,8.20599609 Z M63.1647461,5.46765625 C63.5548047,5.98691406 64.0167773,6.44888672 64.5360352,6.83894531 C64.0167773,7.22900391 63.554668,7.69097656 63.1647461,8.21023437 C62.7746875,7.69097656 62.3127148,7.22900391 61.793457,6.83894531 C62.3127148,6.44888672 62.7746875,5.98677734 63.1647461,5.46765625 Z" id="Shape" fill="#56B1DA"></path>
            <path d="M54.1016602,45.4510547 C53.7419531,45.4510547 53.3908594,45.5959766 53.1351953,45.8516406 C52.8808984,46.1059375 52.7346094,46.4586719 52.7346094,46.8181055 C52.7346094,47.1775391 52.8807617,47.5302734 53.1351953,47.7845703 C53.3894922,48.0388672 53.7420898,48.1851563 54.1016602,48.1851563 C54.4612305,48.1851563 54.8138281,48.0388672 55.0679883,47.7845703 C55.3222852,47.5302734 55.4687109,47.1775391 55.4687109,46.8181055 C55.4687109,46.4586719 55.3224219,46.1059375 55.0679883,45.8516406 C54.8139648,45.5959766 54.4612305,45.4510547 54.1016602,45.4510547 Z" id="Path" fill="#56B1DA"></path>
        </g>
    </g>
</svg>
