<?xml version="1.0" encoding="UTF-8"?>
<svg xmlns="http://www.w3.org/2000/svg" width="71" height="71" viewBox="0 0 71 71">
  <g fill="none" fill-rule="nonzero">
    <path fill="#33ADE4" d="M35.5 0C55.1052 0 71 15.8948 71 35.5S55.1045 71 35.5 71 0 55.1095 0 35.5 15.8926 0 35.5 0"/>
    <path fill="#FFF" d="M39.8814 30.77v-5.281h12.0764v-8.0464H19.0734v8.0464h12.0779v5.2767c-9.8158.4509-17.1962 2.3949-17.1962 4.7237 0 2.3287 7.384 4.2727 17.1962 4.7264v16.9158h8.733V40.2144c9.798-.4523 17.1635-2.3948 17.1635-4.7215 0-2.3267-7.3655-4.2692-17.1636-4.7215m0 8.0102v-.0042c-.2463.0156-1.5123.0915-4.331.0915-2.2535 0-3.839-.0638-4.3977-.093v.0071c-8.672-.384-15.145-1.8942-15.145-3.7012s6.4738-3.315 15.145-3.6998v5.8966c.568.039 2.1925.1349 4.4347.1349 2.693 0 4.047-.1122 4.2955-.135V31.382c8.6549.3855 15.113 1.8971 15.113 3.6977 0 1.8005-6.461 3.3128-15.113 3.6984"/>
  </g>
</svg>
