<?xml version="1.0" encoding="UTF-8"?>
<svg width="40px" height="40px" viewBox="0 0 40 40" version="1.1" xmlns="http://www.w3.org/2000/svg" xmlns:xlink="http://www.w3.org/1999/xlink">
    <!-- Generator: Sketch 53.2 (72643) - https://sketchapp.com -->
    <title>OGS_Часы</title>
    <desc>Created with Sketch.</desc>
    <g id="OGS_Часы" stroke="none" stroke-width="1" fill="none" fill-rule="evenodd">
        <g id="time-left" transform="translate(2.000000, 2.000000)" fill="#2867EF" fill-rule="nonzero">
            <path d="M22.5219454,33.1216793 C22.2242399,33.1911374 21.9207137,33.2528214 21.6194382,33.3047697 C20.831869,33.4418695 20.3111947,34.1509814 20.4568656,34.8889374 C20.5288085,35.2519939 20.7490609,35.5543837 21.0480858,35.7517871 C21.3562684,35.9548575 21.7485008,36.046548 22.1481837,35.9769446 C22.506967,35.9146067 22.8685441,35.8412979 23.2233694,35.7583987 C24.0010824,35.5771973 24.4748812,34.8396047 24.2808604,34.1118931 C24.0873052,33.3835276 23.300124,32.9403327 22.5219454,33.1216793 Z" id="Shape"></path>
            <path d="M32.4863246,12.6166144 C32.5776138,12.9260162 32.7518994,13.1786003 32.9720387,13.3531286 C33.2984497,13.6116687 33.7255575,13.6986586 34.1331531,13.5470925 C34.8164977,13.2919222 35.1867414,12.4632458 34.9606788,11.6951488 C34.8576823,11.344995 34.7433967,10.993744 34.6216546,10.6517406 C34.3543376,9.90017954 33.5962892,9.53427352 32.9276484,9.83489795 C32.2597045,10.1353656 31.9341995,10.9881014 32.2017255,11.7398976 C32.3040251,12.027356 32.3998438,12.3224162 32.4863246,12.6166144 Z" id="Shape"></path>
            <path d="M26.8614929,31.3396724 C26.5967741,31.4832969 26.3235495,31.6223053 26.0483189,31.7525433 C25.3302319,32.0929425 25.0842896,32.8472676 25.4983392,33.4371302 C25.6107584,33.5975702 25.7604903,33.7287314 25.9329307,33.8289652 C26.3958477,34.0966289 27.024545,34.1367225 27.5479646,33.8889076 C27.8751921,33.733809 28.200574,33.568819 28.5158455,33.3974983 C29.2070514,33.0222151 29.3973056,32.2570753 28.9404067,31.6887761 C28.4835881,31.1202791 27.5529396,30.9641255 26.8614929,31.3396724 Z" id="Shape"></path>
            <path d="M35.9861848,15.9808595 C35.95456,15.1844767 35.2790169,14.564622 34.4767414,14.595715 C33.6754761,14.6271167 33.0507503,15.2981244 33.0822197,16.0941986 C33.0942635,16.3985709 33.0973716,16.7074952 33.0903007,17.0115588 C33.0790339,17.5109762 33.3250391,17.9561544 33.707334,18.2237242 C33.9350792,18.3829699 34.211466,18.4793351 34.5111635,18.4861247 C35.3132058,18.5037929 35.9778706,17.8721337 35.9956644,17.0753651 C36.0036678,16.7120473 36.0006374,16.3439459 35.9861848,15.9808595 Z" id="Shape"></path>
            <path d="M31.6291379,27.5496194 C31.0987808,27.0419233 30.3484508,27.1797616 29.9512437,27.8552181 C29.7991273,28.1138897 29.6389373,28.3693728 29.4749027,28.6153724 C29.0462342,29.2579636 29.1067861,30.2231584 29.6104234,30.7705055 C29.6391295,30.8015723 29.6681559,30.8301046 29.6982716,30.8569201 C30.1989615,31.3073062 30.8948269,31.2038049 31.2996591,30.5976763 C31.4955395,30.3041773 31.6864859,29.9989873 31.8682696,29.6900367 C32.2655408,29.0145802 32.1580213,28.0565797 31.6291379,27.5496194 Z" id="Shape"></path>
            <path d="M34.1090125,22.4457953 C33.4188976,22.2039593 32.6839656,22.6333159 32.4677226,23.4046081 C32.3849508,23.6992723 32.2932156,23.9953452 32.1941976,24.2853135 C31.9767641,24.9236351 32.1850941,25.6259766 32.6626774,26.0023485 C32.750281,26.0711426 32.8467781,26.1294493 32.9516083,26.1737467 C33.6272976,26.461915 34.3839381,26.0830387 34.6414969,25.3275558 C34.759072,24.9828027 34.8681739,24.6305362 34.9668418,24.2802263 C35.1828747,23.5087776 34.7989874,22.6876312 34.1090125,22.4457953 Z" id="Shape"></path>
            <path d="M15.2173308,33.107152 C13.9323028,32.8731414 12.6996136,32.4746529 11.5307146,31.9188582 C11.5168806,31.9115307 11.5045068,31.9031899 11.4899811,31.8964861 C11.2145301,31.7649818 10.9395402,31.6241233 10.6730045,31.4769507 C10.6720823,31.4758594 10.6703914,31.4751578 10.6689312,31.4745342 C10.1798981,31.2013919 9.70262394,30.8991736 9.23895325,30.5681133 C2.47779996,25.7374541 0.852147317,16.2282973 5.61520504,9.37081926 C6.65091301,7.88022923 7.90427644,6.63666775 9.30159068,5.65104803 C9.31880636,5.63888758 9.33602205,5.62680509 9.35308402,5.61456669 C14.2770008,2.17347233 20.9629123,1.94156639 26.1913316,5.47760577 L25.0683923,7.12324148 C24.7562043,7.58128494 24.9482668,7.91507359 25.494788,7.86518458 L30.3725913,7.42226373 C30.9198042,7.37237472 31.247056,6.89227096 31.0998772,6.35627593 L29.7900248,1.56958147 C29.6433841,1.03296283 29.2679438,0.96873073 28.9554483,1.42669624 L27.829896,3.07622953 C23.9929499,0.463838374 19.390905,-0.532304811 14.8231377,0.271064127 C14.3630792,0.35182196 13.9094767,0.450664558 13.4620994,0.565721083 C13.4586409,0.566344696 13.4558741,0.566734454 13.4531073,0.567358067 C13.4358147,0.571645403 13.4182916,0.577335868 13.4014602,0.582090914 C9.46260346,1.6080116 6.02599898,3.93806215 3.57376283,7.26254095 C3.55308864,7.2874075 3.5317996,7.31172839 3.51227824,7.33877759 C3.4307343,7.45017039 3.3498052,7.5641356 3.27056693,7.6781008 C3.14098815,7.86487277 3.01325391,8.05632184 2.89105328,8.24777091 C2.87575899,8.27084458 2.86407692,8.294308 2.85070402,8.31761553 C0.827092345,11.4981178 -0.148975572,15.1750936 0.0184162331,18.9184842 C0.0188005118,18.9308005 0.0181088101,18.9431948 0.0184162331,18.955823 C0.0346327946,19.3214938 0.0632231304,19.6922315 0.10203528,20.0572008 C0.104110385,20.0807421 0.10925972,20.1030363 0.113179362,20.1265777 C0.153298059,20.4935737 0.20363857,20.8614272 0.266737134,21.2292027 C0.908021441,24.9816357 2.65326162,28.3582641 5.26843193,30.9856219 C5.27450354,30.9917801 5.28080571,30.9984839 5.28695417,31.004876 C5.28910613,31.0072925 5.29148866,31.0085397 5.29356376,31.0108003 C5.99617895,31.7136896 6.76043244,32.3638058 7.58332687,32.9516386 C9.73682474,34.4907145 12.1348007,35.5080605 14.7100829,35.9767834 C15.4914752,36.1192009 16.2378982,35.5916246 16.3780831,34.7994807 C16.5181911,34.0067911 15.9984926,33.2491018 15.2173308,33.107152 Z" id="Shape"></path>
            <path d="M15.6995368,5.83783784 C15.0890703,5.83783784 14.5945946,6.39023981 14.5945946,7.07063935 L14.5945946,19.352784 L24.6585694,25.1596042 C24.8205477,25.2532192 24.9939865,25.2972973 25.1646514,25.2972973 C25.5643782,25.2972973 25.9504546,25.0543382 26.1467412,24.6304226 C26.4266813,24.0253877 26.2148466,23.2820893 25.6727774,22.9696318 L16.8032381,17.8515216 L16.8032381,7.07063935 C16.8031651,6.39023981 16.3092734,5.83783784 15.6995368,5.83783784 Z" id="Shape"></path>
        </g>
    </g>
</svg>