<?xml version="1.0" encoding="UTF-8"?>
<svg width="40px" height="40px" viewBox="0 0 40 40" version="1.1" xmlns="http://www.w3.org/2000/svg" xmlns:xlink="http://www.w3.org/1999/xlink">
    <!-- Generator: Sketch 53.2 (72643) - https://sketchapp.com -->
    <title>OGS_Галка</title>
    <desc>Created with Sketch.</desc>
    <g id="OGS_Галка" stroke="none" stroke-width="1" fill="none" fill-rule="evenodd">
        <g id="Completed" transform="translate(2.000000, 2.000000)">
            <circle id="Oval-3" stroke="#3AC7A8" stroke-width="2" cx="18" cy="18" r="18"></circle>
            <path d="M12.1615385,19.9230769 C12.0538462,19.8153846 12,19.6538462 12,19.5461538 C12,19.4384615 12.0538462,19.2769231 12.1615385,19.1692308 L12.9153846,18.4153846 C13.1307692,18.2 13.4538462,18.2 13.6692308,18.4153846 L13.7230769,18.4692308 L16.6846154,21.6461538 C16.7923077,21.7538462 16.9538462,21.7538462 17.0615385,21.6461538 L24.2769231,14.1615385 L24.3307692,14.1615385 L24.3307692,14.1615385 C24.5461538,13.9461538 24.8692308,13.9461538 25.0846154,14.1615385 L25.8384615,14.9153846 C26.0538462,15.1307692 26.0538462,15.4538462 25.8384615,15.6692308 L25.8384615,15.6692308 L17.2230769,24.6076923 C17.1153846,24.7153846 17.0076923,24.7692308 16.8461538,24.7692308 C16.6846154,24.7692308 16.5769231,24.7153846 16.4692308,24.6076923 L12.2692308,20.0846154 L12.1615385,19.9230769 Z" id="Shape" fill="#3AC7A8" fill-rule="nonzero"></path>
        </g>
    </g>
</svg>