<svg xmlns="http://www.w3.org/2000/svg" width="38" height="38"><g fill="none" fill-rule="evenodd"><path stroke="#B0B7BA" stroke-width="2" d="M19 37c9.941 0 18-8.059 18-18S28.941 1 19 1 1 9.059 1 19s8.059 18 18 18z"/><g fill="#98A0A3" fill-rule="nonzero"><path stroke="#98A0A3" stroke-width=".25" d="M17.207 27.242H12.43c-.946 0-1.716-.77-1.716-1.716v-7.033c0-.946.77-1.715 1.716-1.715h12.35c.947 0 1.716.77 1.716 1.715v.716a.858.858 0 101.715 0v-.716a3.434 3.434 0 00-3.43-3.43H23.75v-3.025C23.75 9.26 21.442 7 18.605 7c-2.838 0-5.147 2.26-5.147 5.038v3.024h-1.027A3.435 3.435 0 009 18.493v7.033a3.435 3.435 0 003.43 3.431h4.777a.858.858 0 100-1.715zm-2.033-15.204c0-1.832 1.539-3.323 3.43-3.323 1.892 0 3.431 1.49 3.431 3.323v3.024h-6.861v-3.024z"/><g transform="translate(12.945 19.98)"><circle cx="9.721" cy="1.144" r="1.144"/><circle cx="1.144" cy="1.144" r="1.144"/><circle cx="5.432" cy="1.144" r="1.144"/></g><path d="M19.127 25.654a.457.457 0 01-.127-.296c0-.085.042-.212.127-.296l.592-.593a.41.41 0 01.593 0l.042.043 2.327 2.496a.204.204 0 00.296 0l5.67-5.881h.041c.17-.17.424-.17.593 0l.592.592c.17.17.17.423 0 .593l-6.77 7.023a.384.384 0 01-.295.127.384.384 0 01-.296-.127l-3.3-3.554-.085-.127z"/></g></g></svg>