<?xml version="1.0" encoding="UTF-8"?>
<svg width="48px" height="48px" viewBox="0 0 48 48" version="1.1" xmlns="http://www.w3.org/2000/svg" xmlns:xlink="http://www.w3.org/1999/xlink">
    <!-- Generator: Sketch 53.2 (72643) - https://sketchapp.com -->
    <title>OGS_Оператор_2</title>
    <desc>Created with Sketch.</desc>
    <defs>
        <circle id="path-1" cx="24" cy="24" r="24"></circle>
    </defs>
    <g id="OGS_Оператор_2" stroke="none" stroke-width="1" fill="none" fill-rule="evenodd">
        <g id="support">
            <mask id="mask-2" fill="white">
                <use xlink:href="#path-1"></use>
            </mask>
            <use id="Mask" fill="#FFAB8B" xlink:href="#path-1"></use>
            <g id="operator" mask="url(#mask-2)">
                <g transform="translate(8.000000, 7.000000)">
                    <path d="M29.3517492,25.5388373 C29.3559575,26.106234 29.0200192,26.6172228 28.5052268,26.8559647 C25.2662668,28.3583397 20.763512,29.2909712 15.7811691,29.2909712 C10.7988261,29.2909712 6.29607131,28.3584207 3.05703045,26.8559647 C2.54231891,26.6171418 2.20638061,26.106153 2.21050801,25.5388373 C2.31215545,11.9016522 4.80680689,0 15.78125,0 C26.7556931,0 29.2503446,11.9016522 29.3517492,25.5388373 Z" id="Path" fill="#5A4146" fill-rule="nonzero"></path>
                    <path d="M20.7821258,27.7461891 L20.7821258,24.2900144 L10.7803742,24.2900144 L10.7803742,27.7461891 C10.7803742,28.6687043 10.1900745,29.4877107 9.31482212,29.7793806 L2.50654808,32.0488053 C1.04795593,32.5350296 0.0641770833,33.9000673 0.0641770833,35.4375657 L0.0641770833,40.0070873 C0.0641770833,40.7962308 0.70384375,41.4358974 1.49298718,41.4358974 L30.0694319,41.4358974 C30.8585753,41.4358974 31.498242,40.7962308 31.498242,40.0070873 L31.498242,35.4375657 C31.498242,33.9000673 30.5143822,32.5350296 29.0557901,32.0488053 L22.247516,29.7793806 C21.3724255,29.4876298 20.7821258,28.6686234 20.7821258,27.7461891 Z" id="Path" fill="#E6AF78" fill-rule="nonzero"></path>
                    <path d="M10.7803742,27.7461891 C10.7803742,28.6109207 10.2581362,29.3787796 9.47247276,29.7126138 C17.4780176,31.0769231 20.7799407,25.3616827 20.7799407,25.3616827 L20.7822067,25.360145 L20.7822067,24.2900144 L10.7803742,24.2900144 L10.7803742,27.7461891 Z" id="Path" fill="#D29B6E" fill-rule="nonzero"></path>
                    <path d="M29.0557901,32.0488053 L23.4926971,30.1944679 C20.8449271,33.7865232 17.7544728,35.7937364 15.78125,36.4350216 C13.8080272,35.7937364 10.7175729,33.7865232 8.06980288,30.1944679 L2.50670994,32.0488053 C1.04803686,32.5350296 0.0642580128,33.9000673 0.0642580128,35.4375657 L0.0642580128,40.0070873 C0.0642580128,40.7961498 0.704005609,41.4358974 1.49306811,41.4358974 L30.0695128,41.4358974 C30.8585753,41.4358974 31.4983229,40.7961498 31.4983229,40.0070873 L31.4983229,35.4375657 C31.4983229,33.8999864 30.5144631,32.5350296 29.0557901,32.0488053 Z" id="Path" fill="#E4EAF6" fill-rule="nonzero"></path>
                    <g id="Group" stroke-width="1" fill="none" fill-rule="evenodd" transform="translate(0.000000, 30.186699)">
                        <path d="M4.94244471,6.84007933 L0.979327724,2.87696234 C0.407965545,3.51695272 0.0641770833,4.35141667 0.0641770833,5.25078606 L0.0641770833,9.82030769 C0.0641770833,10.6094511 0.70384375,11.2491178 1.49298718,11.2491178 L5.7794984,11.2491178 L5.7794984,8.86072676 C5.7794984,8.10290304 5.47844071,7.37607532 4.94244471,6.84007933 Z" id="Path" fill="#D7DEED" fill-rule="nonzero"></path>
                        <path d="M26.6200553,6.84007933 L30.5831723,2.87696234 C31.1545345,3.51695272 31.4983229,4.35141667 31.4983229,5.25078606 L31.4983229,9.82030769 C31.4983229,10.6094511 30.8586563,11.2491178 30.0695128,11.2491178 L25.7830016,11.2491178 L25.7830016,8.86072676 C25.7830016,8.10290304 26.0840593,7.37607532 26.6200553,6.84007933 Z" id="Path" fill="#D7DEED" fill-rule="nonzero"></path>
                        <path d="M6.9198758,0.85534375 C9.78939263,4.74869952 13.1507179,6.89616346 15.3396987,7.60737179 L15.78125,7.75061699 L16.2228822,7.60729087 C18.411863,6.8960016 21.7731883,4.74853766 24.6427051,0.855262821 L24.8989279,0.476350962 L23.4926971,0.00760737179 C20.845008,3.59974359 17.7545537,5.60695673 15.7813309,6.24824199 C13.8081082,5.60695673 10.7176538,3.59974359 8.06988381,0.00768830128 L6.66365304,0.476431891 L6.9198758,0.85534375 Z" id="Path" fill="#D7DEED" fill-rule="nonzero"></path>
                    </g>
                    <path d="M6.61355769,15.0099111 L5.78394952,15.0072404 C4.99310657,15.0047316 4.35060737,15.6452075 4.35060737,16.4360505 L4.35060737,19.2604087 C4.35060737,20.0606394 5.00775481,20.7048381 5.80790465,20.688976 L7.03924679,20.6644543 L6.61355769,15.0099111 Z" id="Path" fill="#707487" fill-rule="nonzero"></path>
                    <path d="M5.78403045,15.0072404 C5.78241186,15.0072404 5.78111699,15.007726 5.7794984,15.007726 L5.7794984,20.6867099 C5.78912901,20.6867099 5.79827404,20.6892188 5.80798558,20.6890569 L7.03932772,20.6645353 L6.61363862,15.0100729 L5.78403045,15.0072404 Z" id="Path" fill="#65687A" fill-rule="nonzero"></path>
                    <path d="M24.9489423,15.0099111 L25.7785505,15.0072404 C26.5693934,15.0047316 27.2118926,15.6452075 27.2118926,16.4360505 L27.2118926,19.2604087 C27.2118926,20.0606394 26.5547452,20.7048381 25.7545954,20.688976 L24.5232532,20.6644543 L24.9489423,15.0099111 Z" id="Path" fill="#707487" fill-rule="nonzero"></path>
                    <path d="M25.7784696,15.0072404 C25.7800881,15.0072404 25.781383,15.007726 25.7830016,15.007726 L25.7830016,20.6867099 C25.773371,20.6867099 25.764226,20.6892188 25.7545144,20.6890569 L24.5231723,20.6645353 L24.9488614,15.0100729 L25.7784696,15.0072404 Z" id="Path" fill="#65687A" fill-rule="nonzero"></path>
                    <path d="M6.49386298,8.57294151 L6.49386298,11.6531987 C6.49386298,12.9331795 6.54298718,14.2125937 6.64115465,15.4886899 L7.05284295,20.840476 C7.15125321,22.1197284 7.81746474,23.2876218 8.86849599,24.0233518 L13.1826851,27.0432356 C13.9439888,27.5761563 14.8508037,27.8620801 15.780117,27.8620801 L15.7822212,27.8620801 C16.7114535,27.8620801 17.6183494,27.5762372 18.379653,27.0432356 L22.6938421,24.0233518 C23.7449543,23.2876218 24.4111659,22.1197284 24.5094952,20.840476 L24.9211835,15.4886899 C25.019351,14.2125937 25.0684752,12.9330986 25.0684752,11.6531987 L25.0684752,8.57294151 L6.49386298,8.57294151 Z" id="Path" fill="#F0C087" fill-rule="nonzero"></path>
                    <path d="M25.0150617,8.57294151 L6.49386298,8.57294151 L6.49386298,11.6533606 C6.49386298,12.0503197 6.50729728,12.4469551 6.5166851,12.8437524 L6.5166851,12.8437524 L6.5166851,12.8439952 C6.52801522,13.3210745 6.54614343,13.7977492 6.57115064,14.274262 C6.57115064,14.2743429 6.57115064,14.2745048 6.57115064,14.2745048 L6.57115064,14.2745857 C6.5924351,14.679395 6.61007772,15.0843662 6.64115465,15.488609 L7.05284295,20.840395 C7.15125321,22.1196474 7.81746474,23.2875409 8.86857692,24.0232708 L13.182766,27.0431546 C13.9440697,27.5759944 14.8508846,27.8618373 15.7801979,27.8618373 C14.6337508,27.8618373 13.3737596,25.8884527 12.5832404,24.3919046 C12.0624591,23.4061026 11.7845473,22.3133117 11.7637484,21.1985889 L11.6430825,14.7300569 C11.6335329,14.2156691 12.0062131,13.7780833 12.5130745,13.690113 C16.3442764,13.0251963 19.3855256,11.9387179 21.1240529,11.1711018 C22.5022821,13.4492668 24.3175304,14.1306931 24.5528734,14.211137 L24.7776146,14.2879391 L24.9905401,14.2879391 C25.0156282,13.8119119 25.0339183,13.3357228 25.0454912,12.859129 L25.0150617,8.57294151 Z" id="Path" fill="#E6AF78" fill-rule="nonzero"></path>
                    <path d="M5.7794984,7.85849599 L5.7794984,12.8593718 C14.2435088,12.8593718 20.6865481,9.91272917 21.7656619,9.26165144 C22.9253814,12.1449263 25.0150617,12.8593718 25.0150617,12.8593718 L25.7830825,12.8593718 L25.7830825,7.85849599 L5.7794984,7.85849599 Z" id="Path" fill="#5A4146" fill-rule="nonzero"></path>
                    <path d="M25.7545144,20.688895 L24.5286755,20.6645353 C23.9832107,21.6555168 22.3493253,23.278153 17.4778558,23.278153 L17.4778558,24.7069631 C23.9877428,24.7069631 25.6582083,21.9328622 26.0826026,20.6545809 C25.9767468,20.6771603 25.8676538,20.6911611 25.7545144,20.688895 Z" id="Path" fill="#464655" fill-rule="nonzero"></path>
                    <path d="M16.8528373,25.0044599 L16.1383918,25.0044599 C15.5465545,25.0044599 15.0668045,24.524629 15.0668045,23.9328726 L15.0668045,23.9328726 C15.0668045,23.3410353 15.5466354,22.8612853 16.1383918,22.8612853 L16.8528373,22.8612853 C17.4446747,22.8612853 17.9244247,23.3411162 17.9244247,23.9328726 L17.9244247,23.9328726 C17.9245056,24.524629 17.4446747,25.0044599 16.8528373,25.0044599 Z" id="Path" fill="#5B5D6E" fill-rule="nonzero"></path>
                </g>
            </g>
        </g>
    </g>
</svg>