<svg width="29" height="26" viewBox="0 0 29 26" fill="none" xmlns="http://www.w3.org/2000/svg">
<g clip-path="url(#clip0)">
<path d="M18.9091 0C14.326 0 9.45459 1.47648 9.45459 4.21358V7.58412C9.45459 8.04897 9.83986 8.42715 10.3134 8.42715C10.7885 8.42715 11.1737 8.04897 11.1737 7.58412V6.70485C12.9977 7.8323 16.009 8.42558 18.9091 8.42558C21.8085 8.42558 24.8206 7.8323 26.6445 6.70485V7.58333C26.6445 8.40745 24.5306 9.72164 20.5558 10.047C20.4445 10.0551 20.3359 10.0851 20.2362 10.1352C20.1365 10.1854 20.0477 10.2547 19.9749 10.3392C19.902 10.4238 19.8466 10.5219 19.8118 10.6279C19.7769 10.7339 19.7634 10.8458 19.7719 10.957C19.8081 11.3967 20.1847 11.7292 20.6267 11.7292C20.6519 11.7292 20.674 11.7276 20.7 11.7252C22.9383 11.5416 25.168 10.9736 26.6445 10.0518V10.9539C26.6445 11.6732 25.0869 12.7077 22.1977 13.2088C22.0878 13.2268 21.9826 13.2664 21.888 13.3253C21.7935 13.3841 21.7115 13.4611 21.6468 13.5517C21.5821 13.6424 21.5359 13.7449 21.5109 13.8534C21.4859 13.962 21.4827 14.0744 21.5013 14.1842C21.5434 14.4063 21.6716 14.6028 21.858 14.7308C22.0444 14.8588 22.2739 14.9078 22.4963 14.8673C24.2454 14.5655 25.6439 14.0715 26.6445 13.4444V14.3244C26.6445 15.0438 25.0869 16.079 22.1977 16.5793C22.0878 16.5974 21.9826 16.637 21.888 16.6958C21.7935 16.7547 21.7115 16.8316 21.6468 16.9223C21.5821 17.0129 21.5359 17.1154 21.5109 17.224C21.4859 17.3325 21.4827 17.4449 21.5013 17.5547C21.5434 17.7769 21.6716 17.9734 21.858 18.1014C22.0444 18.2293 22.2739 18.2784 22.4963 18.2378C24.2454 17.9361 25.6439 17.4405 26.6445 16.8149V17.695C26.6445 18.4143 25.0869 19.4496 22.1977 19.9499C22.0878 19.9679 21.9826 20.0075 21.888 20.0664C21.7935 20.1252 21.7115 20.2022 21.6468 20.2928C21.5821 20.3835 21.5359 20.486 21.5109 20.5945C21.4859 20.7031 21.4827 20.8155 21.5013 20.9253C21.5434 21.1474 21.6716 21.3439 21.858 21.4719C22.0444 21.5999 22.2739 21.6489 22.4963 21.6084C24.2454 21.3066 25.6439 20.811 26.6445 20.1855V21.0655C26.6445 21.8896 24.5306 23.2038 20.5558 23.5292C20.4445 23.5373 20.3359 23.5673 20.2362 23.6174C20.1365 23.6676 20.0477 23.7369 19.9749 23.8214C19.902 23.906 19.8466 24.0041 19.8118 24.1101C19.7769 24.2161 19.7634 24.3279 19.7719 24.4392C19.8081 24.8796 20.1847 25.2113 20.6267 25.2113C20.6519 25.2113 20.674 25.2098 20.7 25.2082C24.5149 24.8954 28.3637 23.4945 28.3637 21.0663V4.21358C28.3637 1.47648 23.4922 0 18.9091 0ZM18.9091 6.74109C14.1874 6.74109 11.1737 5.24333 11.1737 4.21358C11.1737 3.18382 14.1874 1.68527 18.9091 1.68527C23.6309 1.68527 26.6445 3.18382 26.6445 4.21358C26.6445 5.24333 23.6309 6.74109 18.9091 6.74109Z" fill="#3172FD"/>
<path d="M9.45455 10.2424C4.87145 10.2424 0 11.7764 0 14.6199V21.6226C0 24.4668 4.87145 26 9.45455 26C14.0376 26 18.9091 24.466 18.9091 21.6226V14.6199C18.9091 11.7756 14.0376 10.2424 9.45455 10.2424ZM17.1899 21.6226C17.1899 22.6925 14.1763 24.2493 9.45455 24.2493C4.73279 24.2493 1.71915 22.6925 1.71915 21.6226V20.711C3.54309 21.8818 6.55436 22.4987 9.45455 22.4987C12.3539 22.4987 15.366 21.8818 17.1899 20.7102V21.6226V21.6226ZM17.1899 18.1212C17.1899 19.1912 14.1763 20.7472 9.45455 20.7472C4.73279 20.7472 1.71915 19.1912 1.71915 18.1212V17.2089C3.54309 18.3804 6.55436 18.9973 9.45455 18.9973C12.3539 18.9973 15.366 18.3804 17.1899 17.2089V18.1212V18.1212ZM9.45455 17.2459C4.73279 17.2459 1.71915 15.689 1.71915 14.6199C1.71915 13.5499 4.73279 11.9931 9.45455 11.9931C14.1763 11.9931 17.1899 13.5499 17.1899 14.6199C17.1899 15.689 14.1763 17.2459 9.45455 17.2459V17.2459Z" fill="#3172FD"/>
</g>
<defs>
<clipPath id="clip0">
<rect width="28.3636" height="26" fill="white"/>
</clipPath>
</defs>
</svg>
