<svg width="28" height="26" viewBox="0 0 28 26" fill="none" xmlns="http://www.w3.org/2000/svg">
<g clip-path="url(#clip0)">
<path d="M27.2208 5.98539L14.3742 0.0942205C14.2375 0.0316217 14.0907 -0.00062561 13.9425 -0.00062561C13.7942 -0.00062561 13.6474 0.0316217 13.5108 0.0942205L0.663186 5.98647C0.467382 6.07487 0.299962 6.22425 0.181958 6.41584C0.0639544 6.60743 0.000631123 6.83269 -5.61475e-05 7.06331C-5.61475e-05 7.53239 0.262851 7.95489 0.666174 8.13906L13.5128 13.9912C13.6487 14.0531 13.7946 14.0849 13.942 14.0849C14.0893 14.0849 14.2352 14.0531 14.3712 13.9912L27.2178 8.13906C27.6221 7.95489 27.884 7.53239 27.885 7.06331C27.8842 6.83256 27.8208 6.60722 27.7026 6.41562C27.5844 6.22402 27.4167 6.07471 27.2208 5.98647V5.98539ZM13.942 11.6404L3.87981 7.05897L13.942 2.44289L24.0041 7.05789L13.942 11.6404ZM27.7944 19.0699C27.5564 18.5228 26.912 18.2693 26.3573 18.5044L13.942 23.7488L1.5266 18.5055C0.969911 18.2693 0.327581 18.5228 0.0885753 19.0699C-0.150431 19.617 0.108493 20.2507 0.663186 20.4858L13.5098 25.9133C13.7878 26.0306 14.0961 26.0306 14.3742 25.9133L27.2208 20.4858C27.7764 20.2507 28.0334 19.617 27.7954 19.0699H27.7944Z" fill="#2867EF"/>
<path d="M27.7964 12.5753C27.5584 12.025 26.9161 11.7693 26.3594 12.0033L13.942 17.2391L1.52565 12.0033C0.96896 11.7693 0.325635 12.025 0.0886207 12.5753C-0.148394 13.1257 0.11053 13.7627 0.666219 13.9967L13.5128 19.4133C13.6512 19.4707 13.7966 19.5 13.943 19.5C14.0894 19.5 14.2346 19.4707 14.3712 19.4133L27.2188 13.9967C27.7755 13.7627 28.0344 13.1257 27.7964 12.5753V12.5753Z" fill="#2867EF"/>
</g>
<defs>
<clipPath id="clip0">
<rect width="27.8841" height="26" fill="white"/>
</clipPath>
</defs>
</svg>
