<svg width="25" height="26" viewBox="0 0 25 26" fill="none" xmlns="http://www.w3.org/2000/svg">
<path d="M20.518 10.0194V9.08581C20.518 6.85218 19.7269 4.77611 18.2938 3.23581C16.8252 1.65454 14.8058 0.787872 12.6021 0.787872H11.8324C9.62869 0.787872 7.60935 1.65454 6.14075 3.23581C4.70681 4.77611 3.91656 6.85218 3.91656 9.08581V10.0194C3.07091 10.0773 2.27863 10.4536 1.69948 11.0725C1.12033 11.6914 0.797391 12.5069 0.795776 13.3545V14.8129C0.797027 15.6985 1.14938 16.5475 1.7756 17.1737C2.40181 17.7999 3.25078 18.1523 4.13638 18.1535H6.01784C6.17987 18.1529 6.3351 18.0883 6.44975 17.9738C6.5644 17.8593 6.62919 17.7041 6.63002 17.5421V10.6206C6.62919 10.4586 6.5644 10.3034 6.44975 10.1889C6.3351 10.0744 6.17987 10.0098 6.01784 10.0092H5.14093V9.08581C5.14093 5.05187 8.01669 2.01224 11.8269 2.01224H12.5974C16.4123 2.01224 19.2834 5.05187 19.2834 9.08581V10.0092H18.4064C18.2444 10.0098 18.0892 10.0744 17.9745 10.1889C17.8599 10.3034 17.7951 10.4586 17.7943 10.6206V17.5366C17.7943 17.873 18.07 18.1488 18.4064 18.1488H19.2629C19.0131 21.3413 16.8149 22.0803 15.7946 22.2489C15.6538 21.8176 15.3802 21.442 15.013 21.1755C14.6458 20.9091 14.2038 20.7655 13.7501 20.7653H12.22C11.6508 20.7662 11.1051 20.9926 10.7025 21.395C10.2999 21.7975 10.0733 22.3431 10.0723 22.9123C10.0729 23.4822 10.2992 24.0286 10.7017 24.432C11.1042 24.8354 11.6502 25.0629 12.22 25.0648H13.7548C14.7444 25.0648 15.5756 24.3911 15.8254 23.4835C16.5562 23.3816 17.2609 23.1409 17.9014 22.7744C19.0084 22.1268 20.3186 20.8055 20.492 18.1433C21.3408 18.0904 22.1376 17.7161 22.7203 17.0965C23.303 16.477 23.6277 15.6587 23.6285 14.8082V13.3498C23.6298 12.5035 23.3091 11.6884 22.7314 11.0699C22.1537 10.4514 21.3624 10.0759 20.518 10.0194V10.0194ZM5.4159 16.9236H4.14663C3.58535 16.9234 3.04712 16.7004 2.65017 16.3036C2.25322 15.9068 2.03001 15.3687 2.02959 14.8074V13.349C2.0298 12.7876 2.25291 12.2493 2.64989 11.8523C3.04686 11.4553 3.58522 11.2322 4.14663 11.232H5.4159V16.9236V16.9236ZM13.7548 23.8396H12.22C11.9752 23.8396 11.7405 23.7424 11.5674 23.5693C11.3943 23.3962 11.297 23.1614 11.297 22.9166C11.297 22.6718 11.3943 22.4371 11.5674 22.264C11.7405 22.0909 11.9752 21.9936 12.22 21.9936H13.7548C13.9996 21.9936 14.2344 22.0909 14.4075 22.264C14.5806 22.4371 14.6778 22.6718 14.6778 22.9166C14.6778 23.1614 14.5806 23.3962 14.4075 23.5693C14.2344 23.7424 13.9996 23.8396 13.7548 23.8396V23.8396ZM22.4097 14.8074C22.4092 15.3685 22.1861 15.9066 21.7894 16.3033C21.3926 16.7001 20.8545 16.9232 20.2934 16.9236H19.0234V11.232H20.2934C20.8547 11.2324 21.3928 11.4556 21.7896 11.8526C22.1864 12.2495 22.4094 12.7878 22.4097 13.349V14.8066V14.8074Z" fill="#2867EF" stroke="#2867EF"/>
</svg>
