<svg width="26" height="26" viewBox="0 0 26 26" fill="none" xmlns="http://www.w3.org/2000/svg">
<path d="M8.5428 17.7803L9.66525 16.6578L10.4527 17.4453L8.53388 19.3648C8.35114 19.6545 8.1684 19.7994 7.98566 19.7994C7.79994 19.7994 7.61423 19.6501 7.42851 19.3507V13.8565H8.5428V17.7803ZM14.5325 4.82857H3.296V3.80714H14.0214V2.27463C14.0212 2.13934 13.9673 2.00965 13.8717 1.91398C13.776 1.81832 13.6463 1.76448 13.511 1.76429H2.27531C2.13976 1.76429 2.00977 1.81813 1.91392 1.91398C1.81807 2.00983 1.76423 2.13982 1.76423 2.27537V12.4897H0.742798V2.27463C0.742798 1.42777 1.42845 0.742859 2.27531 0.742859H13.511C14.3571 0.742859 15.0428 1.42852 15.0428 2.27463V3.80714H21.6817C22.5286 3.80714 23.2142 4.4928 23.2142 5.33892V8.68177H22.1928V5.33892C22.1928 5.2719 22.1796 5.20553 22.154 5.14362C22.1283 5.0817 22.0907 5.02544 22.0433 4.97805C21.9959 4.93066 21.9397 4.89307 21.8778 4.86742C21.8158 4.84177 21.7495 4.82857 21.6825 4.82857H14.5325V4.82857ZM22.1928 20.6611V17.3182H23.2142V20.6611C23.2142 20.8623 23.1746 21.0616 23.0976 21.2474C23.0205 21.4333 22.9076 21.6022 22.7653 21.7445C22.623 21.8867 22.4541 21.9995 22.2681 22.0765C22.0822 22.1534 21.8829 22.193 21.6817 22.1929H15.5531V21.1714H21.6817C21.964 21.1714 22.1928 20.9426 22.1928 20.6603V20.6611ZM23.7253 10.4468C24.5714 10.4468 25.2571 11.1325 25.2571 11.9786V14.0214C25.2571 14.8683 24.5714 15.5539 23.7246 15.5539H17.596C17.1897 15.5537 16.8001 15.3922 16.5128 15.1048C16.2256 14.8174 16.0642 14.4277 16.0642 14.0214V11.9786C16.0642 11.1317 16.7499 10.4468 17.5967 10.4468H23.7253V10.4468ZM24.2357 14.0214V11.9786C24.2357 11.8432 24.1819 11.7133 24.0862 11.6174C23.9905 11.5216 23.8607 11.4677 23.7253 11.4675H17.5967C17.5296 11.4675 17.4632 11.4807 17.4012 11.5064C17.3391 11.5321 17.2828 11.5697 17.2353 11.6172C17.1879 11.6646 17.1502 11.721 17.1246 11.783C17.0989 11.845 17.0857 11.9115 17.0857 11.9786V14.0214C17.0857 14.3037 17.3145 14.5325 17.5967 14.5325H23.7253C24.0076 14.5325 24.2357 14.3037 24.2357 14.0214ZM18.1071 12.4889H19.1285V13.5103H18.1071V12.4889ZM20.1499 6.10554C20.4322 6.10554 20.661 6.33434 20.661 6.61589V8.68177H19.6389V7.12697H18.1071V6.10554H20.1499V6.10554ZM7.8928 10.9571C9.7891 10.9571 11.6077 11.7104 12.9486 13.0513C14.2895 14.3922 15.0428 16.2108 15.0428 18.1071C15.0408 20.0028 14.2869 21.8203 12.9464 23.1608C11.606 24.5012 9.78849 25.2552 7.8928 25.2571C5.9965 25.2571 4.17787 24.5038 2.83698 23.163C1.4961 21.8221 0.742798 20.0034 0.742798 18.1071C0.742798 16.2108 1.4961 14.3922 2.83698 13.0513C4.17787 11.7104 5.9965 10.9571 7.8928 10.9571V10.9571ZM7.8928 24.2357C8.69761 24.2357 9.49455 24.0772 10.2381 23.7692C10.9817 23.4612 11.6573 23.0098 12.2264 22.4407C12.7954 21.8716 13.2469 21.196 13.5549 20.4524C13.8628 19.7089 14.0214 18.912 14.0214 18.1071C14.0196 16.4823 13.3733 14.9245 12.2244 13.7755C11.0755 12.6266 9.51765 11.9803 7.8928 11.9786C6.2674 11.9786 4.70857 12.6243 3.55924 13.7736C2.40991 14.9229 1.76423 16.4817 1.76423 18.1071C1.76423 19.7325 2.40991 21.2914 3.55924 22.4407C4.70857 23.59 6.2674 24.2357 7.8928 24.2357V24.2357Z" fill="#2867EF" stroke="#2867EF"/>
</svg>
