<svg width="26" height="26" viewBox="0 0 26 26" fill="none" xmlns="http://www.w3.org/2000/svg">
<path d="M12.5938 20.3125C13.2668 20.3125 13.8125 19.7668 13.8125 19.0938C13.8125 18.4207 13.2668 17.875 12.5938 17.875C11.9207 17.875 11.375 18.4207 11.375 19.0938C11.375 19.7668 11.9207 20.3125 12.5938 20.3125Z" fill="#2867EF"/>
<path d="M13 0C5.81506 0 0 5.81425 0 13C0 20.1849 5.81425 26 13 26C20.1849 26 26 20.1857 26 13C26 5.81506 20.1857 0 13 0ZM13 23.9688C6.93794 23.9688 2.03125 19.0629 2.03125 13C2.03125 6.93794 6.93713 2.03125 13 2.03125C19.0621 2.03125 23.9688 6.93713 23.9688 13C23.9688 19.0621 19.0629 23.9688 13 23.9688Z" fill="#2867EF"/>
<path d="M13 6.5C10.7599 6.5 8.9375 8.30537 8.9375 10.5235C8.9375 11.0792 9.3925 11.5294 9.95312 11.5294C10.5137 11.5294 10.9688 11.0792 10.9688 10.5235C10.9688 9.41444 11.8796 8.51175 13 8.51175C14.1196 8.51175 15.0312 9.41444 15.0312 10.5235C15.0312 11.6334 14.1196 12.5361 13 12.5361C12.4394 12.5361 11.9844 12.9862 11.9844 13.5419V16.0566C11.9844 16.6124 12.4394 17.0625 13 17.0625C13.5606 17.0625 14.0156 16.6124 14.0156 16.0566V14.4202C15.7658 13.9726 17.0625 12.3955 17.0625 10.5235C17.0625 8.30537 15.2401 6.5 13 6.5Z" fill="#2867EF"/>
</svg>
