<?xml version="1.0" encoding="UTF-8"?>
<svg width="24px" height="24px" viewBox="0 0 24 24" version="1.1" xmlns="http://www.w3.org/2000/svg" xmlns:xlink="http://www.w3.org/1999/xlink">
    <g id="ЛК-09.04.19" stroke="none" strokeWidth="1" fill="none" fillRule="evenodd">
        <g id="SkyWay_4_Transactions-со-списком-транзакций-" transform="translate(-975.000000, -280.000000)">
            <g id="Header" transform="translate(133.000000, 215.000000)">
                <g id="Group-6" transform="translate(229.000000, 1.000000)">
                    <g id="check-mark-check-mark-Chcheck-mark-Check-mark" transform="translate(614.000000, 65.000000)">
                        <circle id="Oval-3" stroke="#8590A9" strokeWidth="1" opacity="0.502455357" cx="11" cy="11" r="11"></circle>
                        <path d="M6.12692308,11.6538462 C6.04230769,11.5692308 6,11.4423077 6,11.3576923 C6,11.2730769 6.04230769,11.1461538 6.12692308,11.0615385 L6.71923077,10.4692308 C6.88846154,10.3 7.14230769,10.3 7.31153846,10.4692308 L7.35384615,10.5115385 L9.68076923,13.0076923 C9.76538462,13.0923077 9.89230769,13.0923077 9.97692308,13.0076923 L15.6461538,7.12692308 L15.6884615,7.12692308 L15.6884615,7.12692308 C15.8576923,6.95769231 16.1115385,6.95769231 16.2807692,7.12692308 L16.8730769,7.71923077 C17.0423077,7.88846154 17.0423077,8.14230769 16.8730769,8.31153846 L16.8730769,8.31153846 L10.1038462,15.3346154 C10.0192308,15.4192308 9.93461538,15.4615385 9.80769231,15.4615385 C9.68076923,15.4615385 9.59615385,15.4192308 9.51153846,15.3346154 L6.21153846,11.7807692 L6.12692308,11.6538462 Z" id="Shape" fill="#8590A9" fillRule="nonzero"></path>
                    </g>
                </g>
            </g>
        </g>
    </g>
</svg>
