<?xml version="1.0" encoding="UTF-8"?>
<svg width="24px" height="24px" viewBox="0 0 24 24" version="1.1" xmlns="http://www.w3.org/2000/svg" xmlns:xlink="http://www.w3.org/1999/xlink">
    <g id="ЛК-09.04.19" stroke="none" stroke-width="1" fill="none" fill-rule="evenodd">
        <g id="SkyWay_4_Info_3_hover" transform="translate(-1003.000000, -280.000000)">
            <g id="Out" transform="translate(1004.000000, 281.000000)">
                <circle id="Oval-3" stroke="#8590A9" opacity="0.502455357" cx="11" cy="11" r="11"></circle>
                <g id="logout" transform="translate(5.000000, 4.000000)" fill="#8590A9" fill-rule="nonzero">
                    <path d="M3.62711543,7.91041647 L11.8627292,7.90308316 C12.2769327,7.90308316 12.6127355,7.56728036 12.6127355,7.15307691 C12.6127355,6.73887346 12.2769327,6.40307066 11.8627292,6.40307066 L3.62711543,6.41040397 L4.59682351,5.44074589 C4.88972595,5.14789345 4.88972595,4.67298949 4.59682351,4.38008705 C4.30402107,4.08718461 3.82911711,4.08718461 3.53616467,4.38008705 L1.28629592,6.6299558 C1.26889578,6.64730594 1.25249564,6.6654561 1.23689551,6.68445625 C1.23309548,6.68910629 1.22984545,6.69410633 1.22614542,6.69885637 C1.21469532,6.71340649 1.20344523,6.72800662 1.19314514,6.74340674 C1.19014512,6.74790678 1.1876951,6.75265682 1.18474507,6.75720686 C1.17444499,6.77330699 1.1643449,6.78955713 1.15524483,6.80650727 C1.15349481,6.8098573 1.1520448,6.81340733 1.15029479,6.81675736 C1.14084471,6.83510751 1.13174463,6.85370766 1.12379457,6.87290782 C1.12279456,6.87525784 1.12209455,6.87775786 1.12114454,6.88015788 C1.11299448,6.90035805 1.10544441,6.92080822 1.09904436,6.9418584 C1.09819435,6.94450842 1.09774435,6.94725844 1.09699434,6.94995847 C1.09094429,6.97060864 1.08539425,6.99145881 1.08114421,7.01280899 C1.0798942,7.01915904 1.0793442,7.0257091 1.07819419,7.03210915 C1.07509416,7.0498093 1.07199413,7.06750945 1.07024412,7.0855596 C1.0676941,7.1103098 1.06644409,7.13531001 1.06644409,7.16041022 C1.06644409,7.18551043 1.0676941,7.21051064 1.07024412,7.23531084 C1.07199413,7.253611 1.07519416,7.27146115 1.07824419,7.28931129 C1.0793442,7.29551135 1.0798942,7.3018614 1.08114421,7.30801145 C1.08544425,7.32956163 1.09094429,7.3506118 1.09704434,7.37146198 C1.09779435,7.373912 1.09824435,7.37651202 1.09899436,7.37896204 C1.10544441,7.40011222 1.11299448,7.42076239 1.12124455,7.44116256 C1.12214455,7.44336258 1.12279456,7.4457126 1.12374457,7.44791262 C1.13174463,7.46726278 1.14089471,7.48596293 1.15044479,7.50441309 C1.1520948,7.50766311 1.15349481,7.51106314 1.15519483,7.51431317 C1.1643949,7.53136331 1.17454499,7.54776345 1.18499508,7.56401358 C1.1877951,7.56841362 1.19019512,7.57306366 1.19309514,7.57736369 C1.20344523,7.59281382 1.21479532,7.60751395 1.22619542,7.62211407 C1.22984545,7.62681411 1.23309548,7.63176415 1.23684551,7.63636419 C1.25249564,7.65531434 1.26889578,7.6735145 1.28624592,7.69086464 L3.53611467,9.94073339 C3.68256589,10.0872346 3.87451749,10.1604352 4.06646909,10.1604352 C4.25842069,10.1604352 4.45037229,10.0872346 4.59677351,9.94073339 C4.88967595,9.64783095 4.88967595,9.17297699 4.59677351,8.88007455 L3.62711543,7.91041647 Z" id="XMLID_4_" transform="translate(6.839590, 7.160423) rotate(-45.000000) translate(-6.839590, -7.160423) "></path>
                </g>
            </g>
        </g>
    </g>
</svg>
