<svg xmlns="http://www.w3.org/2000/svg" width="100" height="100" viewBox="0 0 100 100">
    <g fill="none" fill-rule="nonzero">
        <path fill="#78A2FD" d="M91.38 56.897c0 22.853-18.527 41.379-41.38 41.379S8.62 79.75 8.62 56.896c0-22.853 18.527-41.379 41.38-41.379s41.38 18.526 41.38 41.38z" opacity=".2"/>
        <path fill="#FF98B1" d="M58.62 87.931L79.31 100 100 87.931V62.069L79.31 50 58.62 62.069z"/>
        <path fill="#C84060" d="M100 87.931L79.31 100V74.138L100 62.069z"/>
        <path fill="#F84F77" d="M58.62 87.931L79.31 100V74.138L58.62 62.069z"/>
        <path fill="#78A2FD" d="M0 87.931L20.69 100l20.69-12.069V62.069L20.69 50 0 62.069z"/>
        <path fill="#0B3FAF" d="M41.38 87.931L20.69 100V74.138l20.69-12.069z"/>
        <path fill="#2867EF" d="M0 87.931L20.69 100V74.138L0 62.069z"/>
        <path fill="#78A2FD" d="M29.31 37.931L50 50l20.69-12.069V12.069L50 0 29.31 12.069z"/>
        <path fill="#FFF" d="M6.897 83.97v-9.894l6.896 4.024v9.893zM93.103 83.97v-9.894L86.207 78.1v9.893z"/>
        <path fill="#0B3FAF" d="M70.69 37.931L50 50V24.138l20.69-12.069z"/>
        <path fill="#2867EF" d="M29.31 37.931L50 50V24.138L29.31 12.069z"/>
        <path fill="#FFF" d="M42.997 12.069L50 7.984l7.003 4.085L50 16.154z"/>
        <g fill="#FFF">
            <path d="M58.25 32.576l.867-3.337 3.127.812-.867 3.338zM64.318 34.157l.867-3.338 17.682 4.906L82 39.062z"/>
        </g>
        <g fill="#F84F77">
            <path d="M69.471 46.798L72.414 45l6.32 10.847-2.942 1.798zM77.19 60.02l2.941-1.797 1.723 2.82-2.94 1.797z"/>
        </g>
        <path fill="#FFF" d="M36.5 32.89l1.686-2.755 2.942 1.798-1.685 2.757zM22.39 55.981l12.523-20.496 2.942 1.798-12.522 20.496zM19.217 61.168l1.724-2.822 2.943 1.798-1.724 2.822z"/>
        <path fill="#FF98B1" d="M68.966 79.31h3.448v3.449h-3.448zM50 79.31h15.517v3.449H50z"/>
        <g fill="#FFF">
            <path d="M35.176 81.817l13.7 7.285-1.618 3.044-13.701-7.285zM29.878 79l3.045 1.619-1.62 3.045-3.044-1.62z"/>
        </g>
    </g>
</svg>
