<svg xmlns="http://www.w3.org/2000/svg" width="24" height="23" viewBox="0 0 24 23">
    <g fill="#2867ef" fillRule="nonzero">
        <path d="M16.216 16.216c1.07 0 1.946-.875 1.946-1.946 0-1.07-.875-1.946-1.946-1.946-1.07 0-1.946.876-1.946 1.946 0 1.07.876 1.946 1.946 1.946z"/>
        <path d="M4 6.015c-1.1 0-2-.902-2-2.005 0-1.103.9-2.005 2-2.005h16V4.01h2V0H4C1.8 0 0 1.804 0 4.01v13.032c0 2.807 2.2 5.012 5 5.012h19V6.014H4zm18 14.034H5c-1.7 0-3-1.303-3-3.007V7.418a3.6 3.6 0 0 0 2 .602h18v12.03z"/>
    </g>
</svg>
