            <svg width="48" height="48" fill="none" xmlns="http://www.w3.org/2000/svg">
                <mask id="af" maskUnits="userSpaceOnUse" x="0" y="0" width="48" height="48">
                    <path
                        d="M24 48c13.255 0 24-10.745 24-24S37.255 0 24 0 0 10.745 0 24s10.745 24 24 24z"
                        fill="#fff"
                    />
                </mask>
                <g mask="url(#af)">
                    <path
                        d="M24 48c13.255 0 24-10.745 24-24S37.255 0 24 0 0 10.745 0 24s10.745 24 24 24z"
                        fill="#2867ef"
                    />
                    <path d="M30.89 36.112v-4.97H18.11v4.97l6.39 5.68 6.39-5.68z" fill="#E6AF78" />
                    <path
                        d="M40.771 38.437l-8.786-2.067a1.407 1.407 0 0 1-.369-.148l-7.116 4.15-6.839-4.351c-.176.167-.396.29-.646.35L8.23 38.436a2.84 2.84 0 0 0-2.19 2.765v5.56a1.42 1.42 0 0 0 1.42 1.42h34.08a1.42 1.42 0 0 0 1.42-1.42v-5.56a2.84 2.84 0 0 0-2.189-2.765z"
                        fill="#EFF2FA"
                    />
                    <path d="M18.11 31.142v5.244c8.05 2.9 12.78-4.358 12.78-4.358v-.886H18.11z" fill="#D29B6E" />
                    <path
                        d="M15.27 14.813l.618 13.611a4.26 4.26 0 0 0 1.7 3.215l2.936 2.201a4.26 4.26 0 0 0 2.556.852h2.84c.922 0 1.819-.298 2.556-.852l2.936-2.201a4.259 4.259 0 0 0 1.7-3.215l.618-13.611H15.27z"
                        fill="#F0C087"
                    />
                    <path
                        d="M22.37 17.652c2.84 0 7.1-.71 8.11-2.84H15.27l.618 13.612a4.261 4.261 0 0 0 1.7 3.215l2.936 2.201a4.26 4.26 0 0 0 2.556.852h1.42c-1.42 0-4.26-2.84-4.26-6.39v-8.52c0-.71.71-2.13 2.13-2.13z"
                        fill="#E6AF78"
                    />
                    <path
                        d="M11.252 43.575l-4.6-4.133a2.835 2.835 0 0 0-.612 1.76v5.56a1.42 1.42 0 0 0 1.42 1.42h4.97v-1.966a3.549 3.549 0 0 0-1.178-2.641zm26.496 0l4.601-4.133c.396.5.612 1.12.611 1.76v5.56a1.42 1.42 0 0 1-1.42 1.42h-4.97v-1.966a3.55 3.55 0 0 1 1.178-2.641z"
                        fill="#E4EAF6"
                    />
                    <path d="M26.275 48.182h-3.55l.444-6.39h2.662l.444 6.39z" fill="#5B5D6E" />
                    <path
                        d="M26.275 40.373h-3.55v1.336c0 .438.356.793.794.793h1.963a.794.794 0 0 0 .793-.793v-1.336z"
                        fill="#515262"
                    />
                    <path
                        d="M18.01 34.532l6.49 5.84s-1.817.918-4.06 2.767a.911.911 0 0 1-1.41-.319l-3.05-6.708.965-1.446a.71.71 0 0 1 1.065-.134zm12.98 0l-6.49 5.84s1.818.918 4.06 2.767a.91.91 0 0 0 1.411-.319l3.05-6.708-.965-1.446a.71.71 0 0 0-1.066-.134z"
                        fill="#E4EAF6"
                    />
                    <path
                        d="M28.804 10.108l.666 4.704c3.039.608 3.477 5.377 3.54 6.738.011.248.09.486.224.694l1.16 1.799s-.397-2.974 1.42-4.97c0 0 .623-11.805-7.01-8.965z"
                        fill="#785550"
                    />
                    <path
                        d="M35.105 23.74l-.801 3.206a.853.853 0 0 1-1.675-.102l-.41-3.279a1.47 1.47 0 0 1 1.459-1.653 1.471 1.471 0 0 1 1.428 1.828z"
                        fill="#F0C087"
                    />
                    <path
                        d="M15.95 8.836l1.05.718c-4.747 3.505-3.86 9.518-3.86 9.518 1.42 1.42 1.42 4.97 1.42 4.97l1.42-1.42s-.548-4.101 2.13-5.68c2.485-1.464 4.66-.71 6.878-.71 5.946 0 7.61-2.24 7.322-4.97-.15-1.412-2.308-4.353-7.81-4.26-2.22.038-6.39.71-8.55 1.834z"
                        fill="#694B4B"
                    />
                    <path
                        d="M15.536 15.61s-.754-2.972 1.465-6.056c-4.748 3.505-3.861 9.518-3.861 9.518 1.42 1.42 1.42 4.97 1.42 4.97l1.42-1.42s-.548-4.101 2.13-5.68c2.485-1.464 4.66-.71 6.878-.71.967 0 1.81-.064 2.56-.175-4.579.153-7.278-3.315-12.012-.446z"
                        fill="#5A4146"
                    />
                    <path
                        d="M13.895 23.74l.802 3.206a.853.853 0 0 0 1.675-.102l.41-3.279a1.47 1.47 0 0 0-1.46-1.653 1.472 1.472 0 0 0-1.427 1.828z"
                        fill="#E6AF78"
                    />
                    <path
                        d="M33.73 46.763h-4.97a.71.71 0 0 0-.71.71v.71h6.39v-.71a.71.71 0 0 0-.71-.71z"
                        fill="#E4EAF6"
                    />
                </g>
            </svg>
