<svg width="20" height="20" viewBox="0 0 20 20" fill="none" xmlns="http://www.w3.org/2000/svg">
<path d="M13.5134 13.5134C14.4051 13.5134 15.1351 12.7842 15.1351 11.8917C15.1351 11 14.4059 10.27 13.5134 10.27C12.6217 10.27 11.8917 11 11.8917 11.8917C11.8917 12.7834 12.6217 13.5134 13.5134 13.5134Z" fill="#212121"/>
<path d="M3.33333 5.0125C2.41667 5.0125 1.66667 4.26083 1.66667 3.34167C1.66667 2.4225 2.41667 1.67083 3.33333 1.67083H16.6667V3.34167H18.3333V0H3.33333C1.5 0 0 1.50333 0 3.34167V14.2017C0 16.5408 1.83333 18.3783 4.16667 18.3783H20V5.01167H3.33333V5.0125ZM18.3333 16.7075H4.16667C2.75 16.7075 1.66667 15.6217 1.66667 14.2017V6.18167C2.16044 6.50991 2.74041 6.68449 3.33333 6.68333H18.3333V16.7083V16.7075Z" fill="#212121"/>
</svg>
