<svg xmlns="http://www.w3.org/2000/svg" width="17" height="12" viewBox="0 0 17 12">
    <path fill="#FEFEFE" fill-rule="nonzero" d="M15.843 1.014c-.578-.687-1.644-.967-3.68-.967H4.77c-2.083 0-3.167.298-3.742 1.03-.561.712-.561 1.762-.561 3.215v2.77c0 2.816.665 4.246 4.303 4.246h7.393c1.766 0 2.744-.248 3.377-.853.65-.622.927-1.636.927-3.393v-2.77c0-1.532-.044-2.588-.624-3.278zM10.739 6.06L7.382 7.814a.516.516 0 0 1-.755-.457V3.859a.516.516 0 0 1 .754-.458l3.357 1.743a.516.516 0 0 1 0 .916z"/>
</svg>
