<svg xmlns="http://www.w3.org/2000/svg" width="17" height="14" viewBox="0 0 17 14">
    <path fill="#FEFEFE" fill-rule="nonzero" d="M.816 6.706l3.687 1.376 1.427 4.59c.091.294.45.402.689.207l2.055-1.675a.613.613 0 0 1 .747-.021l3.707 2.691a.434.434 0 0 0 .68-.263L16.525.551a.435.435 0 0 0-.582-.494L.812 5.893a.435.435 0 0 0 .004.813zM5.7 7.35l7.205-4.438c.13-.08.263.096.151.199L7.11 8.638a1.233 1.233 0 0 0-.382.738l-.203 1.501c-.026.2-.308.22-.363.026l-.78-2.737A.725.725 0 0 1 5.7 7.35z"/>
</svg>
