<svg xmlns="http://www.w3.org/2000/svg" width="16" height="16" viewBox="0 0 16 16">
    <path fill="#FEFEFE" fill-rule="nonzero" d="M14.745 8.806A7.138 7.138 0 0 0 6.581.642 4.313 4.313 0 0 0 .645 6.58a7.137 7.137 0 0 0 8.164 8.164 4.314 4.314 0 0 0 5.936-5.937zm-3.66 2.132c-.303.435-.746.775-1.326 1.02-.58.244-1.267.366-2.06.366-.95 0-1.737-.166-2.358-.502a3.055 3.055 0 0 1-1.073-.965c-.276-.403-.415-.797-.415-1.181 0-.227.086-.424.254-.585a.907.907 0 0 1 .648-.243c.212 0 .393.064.542.19.147.127.27.31.37.553.121.28.253.515.392.703.14.185.335.339.588.46.25.121.583.182 1 .182.57 0 1.03-.124 1.384-.367.354-.246.525-.545.525-.906 0-.288-.092-.516-.28-.695a1.866 1.866 0 0 0-.74-.414c-.306-.097-.717-.2-1.23-.308-.691-.15-1.27-.326-1.737-.528-.468-.202-.841-.478-1.118-.827-.277-.353-.415-.791-.415-1.31 0-.496.146-.938.438-1.324.292-.386.714-.682 1.264-.888.549-.206 1.195-.309 1.935-.309.591 0 1.103.069 1.536.205.432.137.792.318 1.08.545.286.227.497.466.63.717.134.252.2.498.2.738a.857.857 0 0 1-.254.602.842.842 0 0 1-.636.267c-.227 0-.405-.052-.528-.163-.12-.107-.246-.278-.383-.515a2.29 2.29 0 0 0-.62-.776c-.234-.181-.62-.275-1.157-.274-.497 0-.895.101-1.195.3-.302.202-.447.436-.447.71 0 .172.05.317.15.441.1.125.24.234.421.325.181.093.365.165.55.216.186.053.497.13.928.231.54.117 1.03.247 1.47.389.44.142.816.314 1.126.52.312.203.557.464.73.778.177.315.264.7.264 1.153 0 .545-.151 1.035-.454 1.47z"/>
</svg>
