<svg xmlns="http://www.w3.org/2000/svg" width="23" height="29" viewBox="0 0 23 29">
    <g fill="#2867EF" fill-rule="nonzero">
        <path d="M19.458 9.076l1.26-1.79a.724.724 0 0 0-.171-1.005l-1.898-1.353a.713.713 0 0 0-.998.171l-1.29 1.834a11.33 11.33 0 0 0-3.047-.941v-.746c0-.478.388-.869.863-.869h.475a.868.868 0 0 0 .864-.868V.87A.868.868 0 0 0 14.652 0H8.347a.868.868 0 0 0-.862.869v2.64c0 .477.388.868.862.868h.476c.475 0 .863.391.863.869v.746c-1.149.184-2.241.539-3.25 1.04L5.156 5.215a.713.713 0 0 0-.998-.171L2.261 6.397a.724.724 0 0 0-.17 1.004l1.288 1.833A11.577 11.577 0 0 0 0 17.424C0 23.807 5.16 29 11.5 29 17.841 29 23 23.807 23 17.424c0-3.277-1.36-6.24-3.542-8.348zM11.5 26.222c-4.82 0-8.74-3.947-8.74-8.798 0-4.852 3.92-8.799 8.74-8.799s8.74 3.947 8.74 8.799c0 4.85-3.92 8.798-8.74 8.798z"/>
        <path d="M17.999 16.944C17.969 13.11 14.84 10 11 10l-.056.002v6.942H4.001L4 17C4 20.842 7.11 23.97 10.944 24L11 24c3.86 0 7-3.14 7-7l-.001-.056z"/>
    </g>
</svg>
