<?xml version="1.0" encoding="UTF-8"?>
<svg xmlns="http://www.w3.org/2000/svg" width="16" height="20">
  <path d="M10.8654 3.5556H1.579C.7077 3.5556 0 4.2426 0 5.0884v12.9343c0 .8458.7077 1.5329 1.579 1.5329h9.2864c.8713 0 1.579-.687 1.579-1.533V5.0885c-.004-.8458-.7118-1.5328-1.579-1.5328zm.4704 14.4631c0 .2542-.2127.4607-.4745.4607H1.575c-.2618 0-.4746-.2065-.4746-.4607V5.0884c0-.2541.2128-.4606.4746-.4606h9.2863c.2618 0 .4745.2065.4745.4606v12.9303z"/>
  <path d="M14.421 0H5.1345c-.8713 0-1.579.687-1.579 1.5329 0 .2978.2454.5361.5522.5361s.5523-.2383.5523-.5361c0-.2542.2127-.4607.4745-.4607h9.2863c.2618 0 .4746.2065.4746.4607V14.467c0 .2542-.2128.4607-.4746.4607-.3068 0-.5522.2382-.5522.536 0 .298.2454.5362.5522.5362C15.2923 16 16 15.313 16 14.4671V1.533C16 .687 15.2923 0 14.421 0z"/>
</svg>
