<svg xmlns="http://www.w3.org/2000/svg" width="16" height="16" viewBox="0 0 16 16">
    <path fill="#FEFEFE" fill-rule="nonzero" d="M15.967 9.375v5.903h-3.422V9.771c0-1.384-.495-2.328-1.734-2.328-.945 0-1.508.636-1.756 1.252-.09.22-.113.526-.113.834v5.75H5.518s.046-9.33 0-10.296h3.423v1.46c-.007.01-.016.022-.022.033h.022v-.033c.455-.7 1.267-1.701 3.085-1.701 2.253 0 3.941 1.47 3.941 4.633zM1.937.021C.766.02 0 .789 0 1.799c0 .988.744 1.78 1.892 1.78h.023c1.193 0 1.936-.792 1.936-1.78C3.828.79 3.108.021 1.937.021zM.203 15.278h3.422V4.983H.203v10.295z"/>
</svg>
