<svg xmlns="http://www.w3.org/2000/svg" width="17" height="16" viewBox="0 0 17 16">
    <path fill="#FEFEFE" fill-rule="nonzero" d="M15.506 4.168a7.776 7.776 0 0 0-2.842-2.842A7.639 7.639 0 0 0 8.744.278a7.64 7.64 0 0 0-3.92 1.048A7.775 7.775 0 0 0 1.98 4.168a7.64 7.64 0 0 0-1.048 3.92c0 1.702.497 3.232 1.49 4.591.993 1.36 2.276 2.3 3.85 2.822.182.034.318.01.406-.07a.398.398 0 0 0 .132-.306l-.005-.549a90.82 90.82 0 0 1-.005-.905l-.234.04c-.15.028-.337.04-.565.036a4.3 4.3 0 0 1-.706-.071 1.58 1.58 0 0 1-.682-.305 1.29 1.29 0 0 1-.447-.625l-.102-.234a2.541 2.541 0 0 0-.32-.519c-.146-.19-.293-.318-.442-.386l-.072-.051a.747.747 0 0 1-.132-.122.558.558 0 0 1-.091-.143c-.02-.047-.004-.086.05-.117.055-.03.153-.045.296-.045l.203.03c.135.027.303.109.503.244.2.136.365.312.493.529.156.278.344.49.565.636.22.145.442.218.666.218.224 0 .417-.017.58-.05.162-.035.315-.085.457-.153.061-.455.227-.804.498-1.048a6.963 6.963 0 0 1-1.042-.183 4.15 4.15 0 0 1-.956-.397 2.738 2.738 0 0 1-.818-.68c-.217-.272-.395-.628-.534-1.069-.14-.44-.209-.949-.209-1.525 0-.82.268-1.519.804-2.095-.251-.617-.227-1.308.07-2.074.197-.061.489-.016.875.137.387.152.67.283.85.391.18.109.323.2.432.275a7.221 7.221 0 0 1 1.952-.264c.671 0 1.322.088 1.953.264l.386-.244c.265-.163.577-.312.936-.448.36-.135.634-.172.824-.111.305.766.332 1.457.081 2.074.536.576.803 1.275.803 2.095 0 .576-.07 1.086-.208 1.53-.139.445-.318.8-.539 1.068-.22.268-.495.494-.824.676a4.158 4.158 0 0 1-.956.397 6.956 6.956 0 0 1-1.042.183c.353.305.529.787.529 1.444v2.146c0 .122.042.224.127.305.085.081.219.105.402.07 1.573-.521 2.856-1.462 3.849-2.821.993-1.36 1.49-2.89 1.49-4.591 0-1.417-.35-2.724-1.048-3.92z"/>
</svg>
