<svg xmlns="http://www.w3.org/2000/svg" width="16" height="16" viewBox="0 0 16 16">
    <g fill="#FEFEFE" fill-rule="nonzero">
        <path d="M13.034 6.455c.018-2.169-1.829-4.157-4.118-4.432-.045-.005-.095-.013-.147-.022a2.14 2.14 0 0 0-.349-.038c-.47 0-.595.33-.628.526-.032.19-.001.351.091.477.156.211.429.249.649.279.064.009.125.017.175.028 2.057.46 2.75 1.182 3.088 3.221.008.05.012.111.016.177.014.243.045.75.59.75a.968.968 0 0 0 .145-.011c.508-.077.492-.541.484-.764-.002-.062-.004-.122.002-.161a.217.217 0 0 0 .002-.03z"/>
        <path d="M8.287 1.227c.06.005.118.009.166.016 3.377.52 4.93 2.12 5.36 5.523.008.057.01.128.01.203.005.266.013.819.608.83h.018a.583.583 0 0 0 .44-.167c.185-.193.172-.48.162-.711-.002-.057-.005-.11-.004-.157.043-3.48-2.97-6.637-6.448-6.754-.014 0-.028 0-.042.002a.29.29 0 0 1-.041.002c-.035 0-.077-.003-.123-.006C8.34.004 8.277 0 8.213 0c-.553 0-.658.394-.672.628-.03.543.494.58.746.6zM13.65 11.164a10.745 10.745 0 0 1-.215-.167c-.368-.297-.76-.57-1.14-.835l-.236-.165c-.486-.341-.923-.507-1.336-.507-.555 0-1.04.307-1.44.913-.177.268-.392.399-.657.399-.157 0-.335-.045-.53-.133-1.568-.711-2.688-1.802-3.328-3.241-.31-.696-.21-1.15.335-1.521.31-.21.886-.6.845-1.35C5.902 3.707 4.026 1.15 3.235.86A1.54 1.54 0 0 0 2.188.856c-.908.305-1.56.842-1.885 1.55-.314.686-.3 1.491.04 2.328.987 2.42 2.373 4.53 4.12 6.272 1.712 1.705 3.815 3.101 6.251 4.15.22.095.45.146.618.184.058.013.107.024.143.034a.24.24 0 0 0 .06.008h.02c1.146 0 2.522-1.047 2.945-2.24.37-1.046-.306-1.563-.85-1.978zM8.794 3.992c-.196.005-.605.015-.748.43-.067.195-.059.364.024.502.122.203.355.266.566.3.77.123 1.164.548 1.243 1.337.037.368.284.625.603.625a.593.593 0 0 0 .071-.004c.383-.045.568-.327.551-.835.007-.531-.271-1.134-.744-1.615-.474-.481-1.046-.753-1.566-.74z"/>
    </g>
</svg>
