<svg width="37" height="38" xmlns="http://www.w3.org/2000/svg"><g fill="#2867EF" fill-rule="nonzero"><path d="M18.233 8.369c2.148 0 3.906-1.78 3.906-3.954C22.139 2.24 20.38.46 18.233.46s-3.905 1.78-3.905 3.955c0 2.174 1.757 3.954 3.905 3.954z"/><path d="M24.972 1.003c0 .239.66 1.708.66 3.784 0 1.41-.3 2.638-.9 3.684.667.425 1.453 1.28 1.916 1.719 2.22 2.24 3.331 5.153 3.331 8.514 0 3.36-1.11 6.273-3.33 8.514-2.222 2.24-4.886 3.36-8.217 3.36-3.331 0-5.996-1.12-8.217-3.36-2.22-2.24-3.33-5.154-3.33-8.514 0-3.361 1.11-6.274 3.33-8.514.444-.449 1.452-1.183 1.73-1.365-.901-1.614-1.351-3.044-1.351-4.29 0-1.245.296-2.422.889-3.532-2.22.897-4.377 2.24-6.153 4.033C1.777 8.846 0 13.326 0 18.704c0 5.153 1.777 9.634 5.33 13.443 3.553 3.585 7.994 5.377 13.102 5.377 5.107 0 9.549-1.792 13.102-5.377 3.553-3.585 5.33-8.066 5.33-13.443 0-5.154-1.777-9.635-5.33-13.22-1.803-1.694-4.18-3.507-6.562-4.48z"/></g></svg>
