<svg xmlns="http://www.w3.org/2000/svg" xmlns:xlink="http://www.w3.org/1999/xlink" width="171" height="23" viewBox="0 0 171 23">
    <defs>
        <path id="a" d="M86.77 12.677c.053.936.274 1.696.664 2.28.74 1.093 2.047 1.64 3.919 1.64.838 0 1.602-.12 2.291-.36 1.333-.464 1.999-1.295 1.999-2.493 0-.899-.28-1.539-.842-1.92-.57-.375-1.46-.7-2.673-.978l-2.235-.505c-1.46-.33-2.493-.693-3.1-1.09-1.048-.688-1.572-1.718-1.572-3.088 0-1.482.513-2.699 1.539-3.65 1.025-.95 2.478-1.426 4.357-1.426 1.73 0 3.199.417 4.408 1.252 1.21.835 1.814 2.17 1.814 4.004h-2.1c-.113-.884-.352-1.561-.72-2.033-.68-.86-1.837-1.291-3.47-1.291-1.317 0-2.264.277-2.84.83-.577.555-.865 1.199-.865 1.932 0 .809.337 1.4 1.01 1.775.442.24 1.442.539 2.999.898l2.313.528c1.116.254 1.977.603 2.583 1.044 1.049.772 1.573 1.89 1.573 3.358 0 1.827-.665 3.134-1.994 3.92s-2.873 1.179-4.632 1.179c-2.052 0-3.658-.524-4.818-1.572-1.16-1.041-1.73-2.452-1.707-4.234h2.1zm21.125-6.705h2.235c-.284.771-.917 2.53-1.898 5.278a261.726 261.726 0 0 1-1.841 5.054c-1.168 3.07-1.992 4.942-2.471 5.615-.48.674-1.303 1.011-2.47 1.011-.285 0-.504-.011-.658-.034a5.19 5.19 0 0 1-.567-.123V20.93c.352.097.606.157.764.18.157.022.295.034.415.034.375 0 .65-.062.826-.186a1.71 1.71 0 0 0 .443-.455c.038-.06.172-.366.405-.92.232-.555.4-.966.505-1.236L99.136 5.972h2.29l3.224 9.793 3.245-9.793zm5.189 8.255c.06.673.228 1.19.505 1.55.51.65 1.393.976 2.65.976.75 0 1.408-.162 1.977-.488.57-.326.854-.83.854-1.51 0-.517-.229-.91-.685-1.18-.292-.165-.869-.355-1.73-.573l-1.606-.404c-1.025-.254-1.782-.539-2.268-.853-.869-.547-1.303-1.303-1.303-2.269 0-1.138.41-2.059 1.23-2.763.82-.703 1.922-1.055 3.307-1.055 1.812 0 3.118.531 3.92 1.594.501.674.744 1.4.73 2.18h-1.91a2.339 2.339 0 0 0-.483-1.247c-.464-.532-1.269-.798-2.414-.798-.764 0-1.342.146-1.735.438-.393.292-.59.678-.59 1.157 0 .524.258.943.775 1.258.3.187.741.352 1.325.494l1.337.326c1.452.351 2.425.692 2.92 1.022.786.516 1.179 1.328 1.179 2.437 0 1.07-.406 1.995-1.219 2.773-.812.78-2.05 1.168-3.711 1.168-1.79 0-3.057-.406-3.802-1.218-.745-.812-1.144-1.818-1.196-3.015h1.943zm10.703-11.613h2.043v3.358h1.92v1.651h-1.92v7.85c0 .42.143.7.427.842.157.083.42.124.786.124a6.035 6.035 0 0 0 .708-.034V18a4.513 4.513 0 0 1-.724.146c-.251.03-.523.045-.815.045-.943 0-1.583-.242-1.92-.724-.337-.483-.505-1.11-.505-1.882V7.623h-1.629v-1.65h1.629V2.613zm10.994 3.089c.854 0 1.681.2 2.482.6.801.401 1.411.92 1.83 1.556.405.606.674 1.314.81 2.122.12.554.179 1.438.179 2.65h-8.816c.037 1.221.326 2.2.865 2.938.539.737 1.374 1.106 2.504 1.106 1.056 0 1.898-.348 2.527-1.045a3.52 3.52 0 0 0 .764-1.403h1.987c-.052.441-.226.934-.522 1.476-.295.543-.627.987-.994 1.331-.614.6-1.373 1.003-2.28 1.213-.486.12-1.036.18-1.65.18-1.498 0-2.767-.545-3.807-1.634-1.041-1.09-1.561-2.615-1.561-4.577 0-1.931.524-3.5 1.572-4.705 1.048-1.206 2.418-1.808 4.11-1.808zm3.223 5.323c-.082-.876-.273-1.576-.572-2.1-.554-.974-1.48-1.46-2.774-1.46-.929 0-1.707.335-2.336 1.005-.63.67-.962 1.522-1 2.555h6.682zm4.56-5.054h1.999V7.68c.48-.591.913-1.022 1.303-1.291.666-.457 1.422-.685 2.268-.685.959 0 1.73.235 2.314.707.33.27.629.666.898 1.19.45-.643.977-1.12 1.584-1.431.606-.311 1.287-.466 2.044-.466 1.617 0 2.717.584 3.301 1.752.315.628.472 1.475.472 2.538V18h-2.1V9.645c0-.802-.2-1.352-.6-1.651-.401-.3-.89-.45-1.467-.45a2.91 2.91 0 0 0-2.05.798c-.572.531-.858 1.419-.858 2.661V18h-2.055v-7.85c0-.816-.098-1.411-.292-1.786-.307-.561-.88-.842-1.719-.842-.763 0-1.458.296-2.083.887-.625.592-.938 1.662-.938 3.212V18h-2.021V5.972zm20.36 8.255c.06.673.23 1.19.506 1.55.51.65 1.393.976 2.65.976.75 0 1.408-.162 1.977-.488.57-.326.854-.83.854-1.51 0-.517-.229-.91-.685-1.18-.292-.165-.869-.355-1.73-.573l-1.606-.404c-1.026-.254-1.782-.539-2.268-.853-.869-.547-1.303-1.303-1.303-2.269 0-1.138.41-2.059 1.23-2.763.82-.703 1.922-1.055 3.307-1.055 1.812 0 3.118.531 3.92 1.594.5.674.744 1.4.73 2.18h-1.91a2.339 2.339 0 0 0-.483-1.247c-.464-.532-1.269-.798-2.414-.798-.764 0-1.342.146-1.735.438-.394.292-.59.678-.59 1.157 0 .524.258.943.775 1.258.3.187.741.352 1.325.494l1.336.326c1.453.351 2.426.692 2.92 1.022.787.516 1.18 1.328 1.18 2.437 0 1.07-.407 1.995-1.219 2.773-.812.78-2.05 1.168-3.712 1.168-1.789 0-3.056-.406-3.801-1.218-.745-.812-1.144-1.818-1.196-3.015h1.943z"/>
    </defs>
    <g fill="none" fill-rule="evenodd">
        <g fill="#F2F2F2" fill-rule="nonzero">
            <path d="M29.1 7.4c.8.9 1.2 2 1.2 3.5V18h-3v-6.7c0-1.5-.9-2.4-2.3-2.4-1.5 0-2.5.9-2.5 2.9V18h-3V6.5h3v1.3c.7-1.1 1.9-1.6 3.4-1.6 1.4 0 2.4.4 3.2 1.2zM48.8 9.4v1.2c0 2.3-.7 4.2-2.2 5.6-1.5 1.4-3.4 2.1-5.7 2.1-2.5 0-4.6-.8-6.2-2.4-1.6-1.6-2.4-3.6-2.4-5.9 0-2.3.8-4.3 2.4-6 1.6-1.6 3.6-2.4 6-2.4 3 0 5.6 1.5 7 3.7L45 6.9c-.8-1.3-2.4-2.2-4.3-2.2-1.5 0-2.8.5-3.8 1.5s-1.5 2.3-1.5 3.8.5 2.8 1.5 3.8 2.3 1.5 4 1.5c2.5 0 4.1-1.2 4.7-3.1h-4.9V9.4h8.1zM53.9 8.5c.6-1.5 1.9-2.2 3.5-2.2v3.3c-.9-.1-1.7.1-2.4.6s-1.1 1.3-1.1 2.4V18h-3V6.5h3v2zM58.8 3.3c0-1 .8-1.8 1.8-1.8s1.8.9 1.8 1.8c0 1-.8 1.8-1.8 1.8s-1.8-.8-1.8-1.8zm.3 14.7V6.5h3V18h-3zM73.5 1.9h3V18h-3v-1.4c-.9 1.1-2.1 1.7-3.7 1.7-1.5 0-2.9-.6-4-1.7-1.1-1.2-1.6-2.6-1.6-4.3 0-1.7.6-3.1 1.6-4.3 1.1-1.2 2.4-1.8 4-1.8s2.9.6 3.7 1.7v-6zm-3.2 13.6c.9 0 1.7-.3 2.3-.9.6-.6.9-1.4.9-2.3 0-.9-.3-1.7-.9-2.3-.6-.7-1.3-1-2.3-1-1 0-1.7.3-2.3.9-.6.6-.9 1.4-.9 2.3 0 .9.3 1.7.9 2.3.7.7 1.4 1 2.3 1z"/>
        </g>
        <path fill="#F2F2F2" fill-rule="nonzero" d="M8.9 4.8c1.1 0 2-.9 2-2s-.9-2-2-2-2 .9-2 2 .9 2 2 2z"/>
        <g>
            <use fill="#000" xlink:href="#a"/>
            <use fill="#E6E5E5" xlink:href="#a"/>
        </g>
        <path fill="#F2F2F2" fill-rule="nonzero" d="M12 2.1s-.1 0 0 0l-.1 3.4c.3.2.6.4.8.7 1 1 1.5 2.3 1.5 3.8s-.5 2.8-1.5 3.8-2.2 1.5-3.7 1.5-2.7-.5-3.7-1.5-1.5-2.3-1.5-3.8.5-2.8 1.5-3.8c.2-.2.4-.4.6-.5V2.2l-.1-.1c-1 .4-1.9 1-2.7 1.8C1.5 5.6.7 7.6.7 10c0 2.3.8 4.3 2.4 6 1.6 1.6 3.6 2.4 5.9 2.4 2.3 0 4.3-.8 5.9-2.4 1.6-1.6 2.4-3.6 2.4-6 0-2.3-.8-4.3-2.4-5.9-.8-1-1.8-1.6-2.9-2z"/>
    </g>
</svg>
